<svg width="97" height="86" viewBox="0 0 97 86" fill="none" xmlns="http://www.w3.org/2000/svg">
<g clip-path="url(#clip0_1_613)">
<path d="M11.1916 51.2008C10.8848 51.1843 10.597 51.0467 10.3914 50.8183C10.1859 50.5899 10.0793 50.2893 10.0951 49.9824V49.3674C10.1114 49.0709 10.2409 48.7919 10.4567 48.5879C10.6726 48.3839 10.9585 48.2704 11.2555 48.2709C11.4028 48.2745 11.5479 48.3077 11.6821 48.3684C11.8164 48.4291 11.9372 48.5162 12.0372 48.6243C12.1373 48.7325 12.2147 48.8597 12.2647 48.9983C12.3148 49.1369 12.3366 49.2841 12.3288 49.4312V50.0462C12.3273 50.349 12.2076 50.6392 11.9952 50.8549C11.7827 51.0706 11.4943 51.1947 11.1916 51.2008Z" fill="black"/>
<path d="M47.3947 81.7703C47.1163 81.7706 46.8478 81.6665 46.6422 81.4787C46.4366 81.2908 46.3089 81.0327 46.2841 80.7554C46.2593 80.478 46.3394 80.2014 46.5085 79.9801C46.6775 79.7588 46.9233 79.6088 47.1975 79.5598C47.5398 79.496 47.8879 79.4264 48.2302 79.3509C48.3747 79.3153 48.5248 79.3089 48.6718 79.3322C48.8188 79.3555 48.9596 79.408 49.0859 79.4866C49.2123 79.5652 49.3216 79.6684 49.4074 79.7899C49.4932 79.9115 49.5538 80.049 49.5856 80.1944C49.6174 80.3398 49.6197 80.4901 49.5925 80.6363C49.5652 80.7826 49.509 80.922 49.427 81.0462C49.345 81.1703 49.2389 81.2768 49.1151 81.3594C48.9912 81.4419 48.8521 81.4988 48.7059 81.5266C48.3404 81.6078 47.9691 81.6833 47.592 81.7471C47.5275 81.7633 47.4612 81.7711 47.3947 81.7703ZM53.6781 79.9079C53.419 79.9093 53.1676 79.8204 52.967 79.6564C52.7665 79.4925 52.6293 79.2638 52.5792 79.0096C52.5291 78.7555 52.5691 78.4918 52.6923 78.264C52.8156 78.0361 53.0144 77.8583 53.2545 77.7613C53.5756 77.6297 53.8947 77.4905 54.2118 77.3435C54.4803 77.2197 54.7871 77.2075 55.0645 77.3098C55.342 77.4121 55.5674 77.6204 55.6913 77.8889C55.8152 78.1574 55.8273 78.4641 55.725 78.7416C55.6227 79.019 55.4144 79.2445 55.1459 79.3683C54.7978 79.525 54.4555 79.6758 54.1016 79.8209C53.9675 79.8774 53.8236 79.907 53.6781 79.9079ZM59.4218 76.7517C59.1839 76.7529 58.9518 76.6778 58.7596 76.5374C58.5674 76.3971 58.4252 76.1988 58.3538 75.9718C58.2825 75.7448 58.2857 75.5008 58.3631 75.2758C58.4404 75.0507 58.5878 74.8563 58.7836 74.7211C59.0679 74.5181 59.3638 74.315 59.6365 74.1003C59.7535 74.0123 59.8866 73.9482 60.0283 73.9117C60.17 73.8751 60.3176 73.8669 60.4625 73.8873C60.6074 73.9078 60.7469 73.9566 60.873 74.031C60.999 74.1054 61.1092 74.2038 61.1972 74.3208C61.2852 74.4378 61.3493 74.5709 61.3858 74.7126C61.4224 74.8543 61.4306 75.0019 61.4102 75.1468C61.3897 75.2917 61.3409 75.4312 61.2665 75.5572C61.1921 75.6833 61.0937 75.7935 60.9767 75.8815C60.675 76.1077 60.3965 76.334 60.0542 76.5487C59.8692 76.6794 59.6484 76.7503 59.4218 76.7517ZM64.365 72.441C64.0829 72.4444 63.8105 72.3383 63.6049 72.1451C63.4974 72.046 63.4105 71.9266 63.3493 71.7937C63.2881 71.6609 63.2538 71.5172 63.2485 71.3711C63.2431 71.2249 63.2667 71.0791 63.3179 70.9421C63.3691 70.8051 63.4469 70.6796 63.5469 70.5728C63.7848 70.3118 64.0168 70.0507 64.2489 69.7838C64.3445 69.6729 64.4611 69.582 64.5918 69.5162C64.7226 69.4504 64.865 69.4109 65.011 69.4002C65.157 69.3894 65.3037 69.4075 65.4427 69.4534C65.5817 69.4993 65.7103 69.5721 65.8212 69.6678C65.9321 69.7634 66.023 69.8799 66.0888 70.0107C66.1547 70.1414 66.1941 70.2839 66.2049 70.4299C66.2156 70.5759 66.1975 70.7226 66.1516 70.8616C66.1057 71.0006 66.0329 71.1292 65.9372 71.24C65.6878 71.5301 65.4383 71.8202 65.1772 72.0871C65.0737 72.1991 64.948 72.2883 64.8082 72.3493C64.6684 72.4102 64.5175 72.4414 64.365 72.441ZM68.2812 67.2194C68.0854 67.2187 67.8933 67.1664 67.7242 67.0678C67.555 66.9692 67.4149 66.8278 67.3178 66.6578C67.2207 66.4878 67.1702 66.2952 67.1713 66.0994C67.1723 65.9037 67.225 65.7116 67.3239 65.5427C67.5018 65.2333 67.6758 64.9258 67.846 64.6202C67.9149 64.4896 68.009 64.374 68.123 64.2801C68.2369 64.1862 68.3684 64.1159 68.5098 64.0733C68.6511 64.0307 68.7995 64.0166 68.9464 64.0318C69.0932 64.0471 69.2356 64.0913 69.3652 64.1621C69.4948 64.2328 69.609 64.3287 69.7012 64.444C69.7935 64.5592 69.8619 64.6917 69.9024 64.8337C69.943 64.9756 69.9549 65.1243 69.9376 65.2709C69.9202 65.4175 69.8739 65.5592 69.8012 65.6877C69.6214 66.0184 69.4357 66.3433 69.2211 66.6682C69.1212 66.8275 68.9826 66.9589 68.8183 67.0502C68.6539 67.1415 68.4692 67.1898 68.2812 67.1904V67.2194ZM70.9964 61.2494C70.8784 61.2491 70.7611 61.2315 70.6483 61.1972C70.3681 61.1031 70.1365 60.9021 70.004 60.6381C69.8714 60.374 69.8486 60.0682 69.9405 59.7873C70.0507 59.4566 70.1551 59.1201 70.2538 58.7836C70.2945 58.643 70.3626 58.5119 70.454 58.3976C70.5455 58.2833 70.6586 58.1882 70.7868 58.1176C70.915 58.0471 71.0559 58.0024 71.2013 57.9863C71.3468 57.9701 71.494 57.9828 71.6346 58.0236C71.7752 58.0644 71.9063 58.1324 72.0206 58.2239C72.1349 58.3153 72.23 58.4284 72.3006 58.5566C72.3712 58.6848 72.4158 58.8257 72.4319 58.9711C72.4481 59.1166 72.4354 59.2638 72.3946 59.4044C72.2844 59.7699 72.1742 60.1296 72.0523 60.4893C71.974 60.7058 71.8303 60.8924 71.6411 61.0234C71.4518 61.1544 71.2265 61.2233 70.9964 61.2204V61.2494ZM72.3772 54.8674H72.2554C72.1101 54.8522 71.9692 54.8085 71.8408 54.7386C71.7125 54.6688 71.5992 54.5743 71.5076 54.4605C71.4159 54.3467 71.3476 54.216 71.3067 54.0757C71.2658 53.9354 71.253 53.7885 71.2691 53.6432C71.3039 53.2951 71.3329 52.947 71.3561 52.5931C71.3625 52.4446 71.3985 52.2989 71.4621 52.1646C71.5256 52.0303 71.6154 51.91 71.7261 51.8109C71.8369 51.7118 71.9663 51.6358 72.1069 51.5875C72.2474 51.5392 72.3962 51.5195 72.5445 51.5295C72.6927 51.5396 72.8375 51.5792 72.9702 51.6461C73.1029 51.713 73.2209 51.8057 73.3173 51.9189C73.4136 52.0321 73.4863 52.1634 73.5311 52.3051C73.5759 52.4468 73.5919 52.596 73.5782 52.744C73.5782 53.1211 73.5202 53.4982 73.4796 53.9043C73.433 54.1619 73.2967 54.3946 73.095 54.5614C72.8932 54.7281 72.6389 54.818 72.3772 54.8152V54.8674ZM72.3772 48.3114C72.1027 48.3116 71.8378 48.2105 71.6333 48.0274C71.4288 47.8443 71.2991 47.5921 71.2691 47.3193C71.2285 46.9654 71.1879 46.6173 71.1356 46.2692C71.0942 45.9768 71.1706 45.68 71.3479 45.444C71.5252 45.2079 71.789 45.0519 72.0813 45.0102C72.226 44.9872 72.3737 44.9935 72.5159 45.0286C72.6581 45.0637 72.7918 45.1269 72.9091 45.2145C73.0265 45.3021 73.1251 45.4123 73.1992 45.5387C73.2732 45.665 73.3212 45.8049 73.3403 45.9501C73.3983 46.3272 73.4448 46.7043 73.4854 47.0756C73.5015 47.2212 73.4887 47.3685 73.4479 47.5091C73.407 47.6497 73.3388 47.7809 73.2472 47.8951C73.1556 48.0093 73.0424 48.1044 72.914 48.1748C72.7856 48.2453 72.6446 48.2897 72.4991 48.3056L72.3772 48.3114ZM11.8878 45.0508C11.8088 45.0594 11.729 45.0594 11.65 45.0508C11.3611 44.9869 11.1093 44.8113 10.9495 44.5624C10.7897 44.3134 10.7349 44.0114 10.7971 43.7222C10.8783 43.3509 10.9654 42.9854 11.0582 42.6199C11.1351 42.3336 11.3226 42.0897 11.5794 41.9418C11.8362 41.7938 12.1412 41.7539 12.4274 41.8308C12.7136 41.9077 12.9575 42.0952 13.1055 42.352C13.2535 42.6088 13.2934 42.9138 13.2164 43.2C13.1294 43.5423 13.0482 43.8788 12.9728 44.2211C12.9097 44.4602 12.7688 44.6715 12.5724 44.8218C12.3759 44.972 12.1351 45.0525 11.8878 45.0508ZM70.9674 41.8598C70.7341 41.8589 70.507 41.7851 70.3177 41.6489C70.1284 41.5126 69.9864 41.3207 69.9115 41.0998C69.8012 40.7633 69.6852 40.4326 69.5576 40.1019C69.5061 39.9647 69.4822 39.8188 69.4872 39.6724C69.4921 39.526 69.5259 39.3821 69.5865 39.2487C69.6471 39.1154 69.7334 38.9953 69.8404 38.8953C69.9474 38.7953 70.0731 38.7174 70.2103 38.6659C70.3474 38.6145 70.4933 38.5906 70.6397 38.5956C70.7861 38.6005 70.9301 38.6343 71.0634 38.6949C71.3327 38.8173 71.5423 39.0417 71.6462 39.3186C71.7796 39.6725 71.9015 40.0323 72.0233 40.392C72.1171 40.672 72.0958 40.9779 71.9642 41.2422C71.8325 41.5066 71.6013 41.7079 71.3213 41.8018C71.2067 41.838 71.0875 41.8575 70.9674 41.8598ZM13.9533 38.8313C13.7954 38.8299 13.6394 38.7964 13.4949 38.7327C13.3588 38.6747 13.2357 38.5901 13.1326 38.484C13.0295 38.3779 12.9486 38.2523 12.8946 38.1146C12.8406 37.9769 12.8146 37.8298 12.818 37.6819C12.8215 37.534 12.8544 37.3883 12.9148 37.2532C13.0714 36.9109 13.2338 36.5686 13.4079 36.2263C13.4726 36.0952 13.5627 35.9784 13.673 35.8825C13.7832 35.7866 13.9115 35.7135 14.0502 35.6677C14.189 35.6218 14.3355 35.6039 14.4812 35.6152C14.6269 35.6264 14.7689 35.6665 14.899 35.7331C15.1629 35.8663 15.3634 36.0984 15.4569 36.3788C15.5503 36.6592 15.5291 36.9652 15.3979 37.23C15.2355 37.5433 15.0846 37.8624 14.9396 38.1815C14.8521 38.371 14.7133 38.5322 14.5391 38.647C14.3648 38.7618 14.1619 38.8257 13.9533 38.8313ZM68.2347 35.9014C68.0417 35.9007 67.8521 35.8501 67.6844 35.7546C67.5167 35.659 67.3765 35.5217 67.2775 35.356C67.0976 35.0543 66.9119 34.7758 66.7263 34.4625C66.6463 34.3404 66.5912 34.2036 66.5642 34.0601C66.5372 33.9166 66.5389 33.7691 66.5691 33.6263C66.5993 33.4834 66.6574 33.3479 66.7401 33.2275C66.8229 33.1072 66.9286 33.0044 67.0512 32.9251C67.2993 32.7647 67.6007 32.7089 67.8897 32.7697C68.1788 32.8306 68.4321 33.0032 68.5945 33.25C68.7975 33.5691 69.0006 33.894 69.1746 34.2189C69.275 34.388 69.3288 34.5806 69.3306 34.7772C69.3324 34.9738 69.2822 35.1674 69.1849 35.3383C69.0877 35.5092 68.9469 35.6513 68.777 35.7502C68.6071 35.8491 68.414 35.9013 68.2173 35.9014H68.2347ZM17.3067 33.1978C17.1002 33.1956 16.8984 33.1365 16.7234 33.0268C16.5485 32.9171 16.4073 32.7612 16.3154 32.5762C16.2236 32.3913 16.1846 32.1846 16.2029 31.9789C16.2212 31.7732 16.296 31.5766 16.419 31.4108C16.6453 31.1091 16.8774 30.8306 17.1152 30.5173C17.2071 30.403 17.3205 30.308 17.449 30.2375C17.5776 30.1671 17.7188 30.1226 17.8645 30.1067C18.0102 30.0908 18.1576 30.1038 18.2984 30.1449C18.4391 30.186 18.5703 30.2544 18.6846 30.3462C18.7989 30.438 18.894 30.5514 18.9644 30.68C19.0349 30.8085 19.0793 30.9497 19.0952 31.0954C19.1111 31.2412 19.0982 31.3886 19.0571 31.5293C19.016 31.67 18.9476 31.8013 18.8558 31.9156C18.6353 32.1882 18.4148 32.4957 18.206 32.751C18.1009 32.89 17.965 33.0027 17.8089 33.0802C17.6529 33.1577 17.4809 33.198 17.3067 33.1978ZM64.3011 30.6624C64.1488 30.6617 63.9982 30.63 63.8585 30.5692C63.7189 30.5083 63.5931 30.4196 63.4889 30.3085C63.2452 30.0474 63.0015 29.7979 62.7521 29.5484C62.5428 29.3392 62.4252 29.0553 62.4252 28.7594C62.4252 28.4634 62.5428 28.1796 62.7521 27.9703C62.9613 27.7611 63.2452 27.6435 63.5411 27.6435C63.8371 27.6435 64.1209 27.7611 64.3301 27.9703C64.597 28.243 64.8581 28.5099 65.1192 28.7884C65.2675 28.9473 65.3661 29.1461 65.4028 29.3604C65.4395 29.5746 65.4127 29.7949 65.3257 29.9941C65.2388 30.1933 65.0954 30.3627 64.9134 30.4815C64.7313 30.6002 64.5185 30.6631 64.3011 30.6624ZM21.7799 28.4287C21.5528 28.4289 21.3311 28.3596 21.1444 28.2303C20.9578 28.1009 20.8152 27.9176 20.7356 27.7049C20.6561 27.4922 20.6435 27.2602 20.6995 27.0401C20.7554 26.8201 20.8773 26.6223 21.0488 26.4735C21.3312 26.2259 21.6213 25.9823 21.9191 25.7425C22.1499 25.557 22.4449 25.4709 22.7393 25.503C23.0336 25.5351 23.3031 25.6828 23.4885 25.9136C23.6739 26.1444 23.7601 26.4394 23.728 26.7338C23.6959 27.0281 23.5482 27.2976 23.3173 27.483C23.0447 27.7035 22.772 27.9297 22.5109 28.1618C22.3052 28.3323 22.047 28.4265 21.7799 28.4287ZM59.3406 26.3981C59.1147 26.398 58.8941 26.3292 58.7082 26.2008C58.4181 26.0035 58.128 25.8063 57.8263 25.6206C57.5778 25.4606 57.4031 25.2084 57.3405 24.9195C57.278 24.6307 57.3327 24.3288 57.4927 24.0803C57.6528 23.8317 57.905 23.657 58.1938 23.5944C58.4827 23.5319 58.7846 23.5866 59.0331 23.7467C59.3522 23.9497 59.6655 24.1586 59.9788 24.3732C60.1747 24.5085 60.3221 24.7028 60.3994 24.9279C60.4767 25.153 60.48 25.3969 60.4086 25.6239C60.3373 25.851 60.1951 26.0492 60.0029 26.1895C59.8107 26.3299 59.5786 26.405 59.3406 26.4039V26.3981ZM27.1581 24.6575C26.9116 24.6563 26.6725 24.5734 26.4782 24.4217C26.2839 24.2701 26.1454 24.0582 26.0844 23.8194C26.0233 23.5806 26.0432 23.3283 26.141 23.102C26.2387 22.8757 26.4087 22.6882 26.6244 22.5689C26.9551 22.3832 27.2916 22.2092 27.6281 22.0409C27.8903 21.922 28.1884 21.9092 28.4598 22.0052C28.7313 22.1012 28.955 22.2986 29.0841 22.556C29.2131 22.8134 29.2375 23.1108 29.1521 23.3858C29.0667 23.6607 28.8782 23.892 28.626 24.0309C28.3127 24.1876 28.0052 24.35 27.6977 24.5183C27.5318 24.6078 27.3466 24.6556 27.1581 24.6575ZM53.5852 23.2071C53.4397 23.2062 53.2958 23.1766 53.1617 23.1201L52.1754 22.7313C51.9173 22.6154 51.713 22.4056 51.6039 22.1446C51.4948 21.8835 51.4892 21.5907 51.5881 21.3256C51.6871 21.0605 51.8832 20.843 52.1366 20.7173C52.3901 20.5915 52.6819 20.5669 52.9529 20.6485C53.3126 20.7819 53.6607 20.9154 54.0146 21.0604C54.2552 21.1577 54.4544 21.3359 54.5776 21.5644C54.7008 21.7928 54.7404 22.0571 54.6895 22.3117C54.6386 22.5662 54.5004 22.7949 54.2988 22.9584C54.0972 23.1219 53.8448 23.2099 53.5852 23.2071ZM33.2094 22.1454C32.9422 22.1442 32.6844 22.047 32.4829 21.8716C32.2814 21.6962 32.1496 21.4542 32.1116 21.1898C32.0736 20.9253 32.132 20.656 32.276 20.431C32.42 20.206 32.6401 20.0402 32.8961 19.9639C33.2616 19.8595 33.6271 19.755 33.9926 19.6622C34.2768 19.595 34.576 19.6421 34.8258 19.7933C35.0756 19.9445 35.256 20.1877 35.3282 20.4706C35.4005 20.7535 35.3588 21.0535 35.2121 21.306C35.0653 21.5584 34.8254 21.7432 34.5438 21.8205C34.2015 21.9075 33.8592 22.0003 33.5227 22.0989C33.4215 22.1314 33.3157 22.1471 33.2094 22.1454ZM47.2961 21.3911C47.2305 21.3971 47.1645 21.3971 47.0989 21.3911C46.7507 21.3273 46.4084 21.2693 46.0603 21.2229C45.9109 21.2082 45.766 21.1636 45.6343 21.0915C45.5026 21.0195 45.3868 20.9215 45.2939 20.8036C45.201 20.6857 45.1329 20.5502 45.0937 20.4053C45.0545 20.2604 45.0449 20.109 45.0657 19.9604C45.0864 19.8117 45.137 19.6687 45.2144 19.5401C45.2917 19.4114 45.3943 19.2998 45.5159 19.2118C45.6376 19.1238 45.7757 19.0612 45.9221 19.028C46.0685 18.9947 46.2201 18.9914 46.3678 19.0182C46.7449 19.0704 47.1163 19.1284 47.4876 19.1981C47.7612 19.247 48.0067 19.3965 48.1758 19.6172C48.3448 19.8378 48.4253 20.1138 48.4013 20.3907C48.3773 20.6677 48.2506 20.9257 48.0461 21.114C47.8416 21.3023 47.5741 21.4074 47.2961 21.4085V21.3911ZM39.661 20.985C39.3776 20.9777 39.1077 20.8627 38.9062 20.6634C38.7047 20.464 38.5868 20.1954 38.5764 19.9121C38.5661 19.6289 38.6641 19.3523 38.8505 19.1388C39.0369 18.9253 39.2977 18.7909 39.5797 18.7629C39.9569 18.7339 40.334 18.7165 40.7401 18.6991C41.0343 18.6984 41.3177 18.8094 41.5332 19.0098C41.7486 19.2101 41.8799 19.4848 41.9005 19.7782C41.9059 19.9253 41.8823 20.072 41.831 20.2099C41.7797 20.3479 41.7017 20.4743 41.6014 20.5821C41.5012 20.6899 41.3807 20.7768 41.2469 20.838C41.113 20.8992 40.9684 20.9334 40.8213 20.9386C40.4732 20.9386 40.1193 20.9734 39.7712 20.9966L39.661 20.985Z" fill="black"/>
<path d="M41.8714 82.2635H41.2913C40.9823 82.2089 40.7025 82.0473 40.5009 81.807C40.2993 81.5667 40.1888 81.263 40.1888 80.9494C40.1888 80.6357 40.2993 80.332 40.5009 80.0917C40.7025 79.8514 40.9823 79.6898 41.2913 79.6353L41.8308 79.8383C42.1387 79.8596 42.427 79.9969 42.6375 80.2225C42.8481 80.4481 42.9652 80.7452 42.9652 81.0538C42.9652 81.3624 42.8481 81.6595 42.6375 81.8851C42.427 82.1107 42.1387 82.248 41.8308 82.2693L41.8714 82.2635Z" fill="black"/>
<path d="M31.0047 35.2748C40.7456 35.2748 48.6421 27.3783 48.6421 17.6374C48.6421 7.89654 40.7456 0 31.0047 0C21.2639 0 13.3673 7.89654 13.3673 17.6374C13.3673 27.3783 21.2639 35.2748 31.0047 35.2748Z" fill="#FEC1C0"/>
<path d="M17.6374 85.4023C27.3783 85.4023 35.2748 77.5057 35.2748 67.7649C35.2748 58.024 27.3783 50.1274 17.6374 50.1274C7.89654 50.1274 0 58.024 0 67.7649C0 77.5057 7.89654 85.4023 17.6374 85.4023Z" fill="#2D41E2"/>
<path d="M30.9525 28.5911C30.6814 28.5901 30.4197 28.4912 30.2157 28.3126C24.5996 23.3637 21.4666 19.4997 20.6834 16.5002C20.5582 16.0254 20.4785 15.5397 20.4455 15.0498C20.4056 14.3511 20.4741 13.6505 20.6486 12.9727C20.9272 12.0257 21.4539 11.1703 22.174 10.495C22.8942 9.81978 23.7816 9.34919 24.7446 9.13195C26.2076 8.72252 27.7711 8.87783 29.125 9.56708C29.8406 10.0345 30.4689 10.6236 30.9815 11.3076C31.6575 10.3256 32.6447 9.6 33.7838 9.24798L34.364 9.10294C35.1461 8.9197 35.9571 8.89602 36.7485 9.03332H36.8123C39.8583 9.65411 40.9838 11.4933 41.3899 12.9495C41.5849 13.6155 41.6519 14.3124 41.5872 15.0034C41.316 16.8427 40.6143 18.5921 39.5392 20.1089C37.2107 23.1054 34.5803 25.8544 31.6894 28.3126C31.4864 28.493 31.224 28.5922 30.9525 28.5911ZM26.4387 11.1336C26.0587 11.1363 25.6805 11.187 25.3132 11.2844C24.7188 11.3993 24.168 11.6772 23.7223 12.087C23.2767 12.4968 22.9537 13.0224 22.7894 13.6051C22.6885 14.0325 22.6475 14.4718 22.6676 14.9105C22.6906 15.2593 22.747 15.6052 22.8358 15.9432C23.474 18.3452 26.2009 21.745 30.9583 25.9977C33.4325 23.8299 35.6939 21.4306 37.7116 18.8325C38.5506 17.6354 39.117 16.2689 39.3709 14.8293C39.4086 14.4404 39.3791 14.0479 39.2839 13.6689C39.0344 12.7639 38.5064 11.6499 36.383 11.209C35.8981 11.1165 35.4001 11.1165 34.9151 11.209L34.3756 11.354C33.5981 11.5571 32.7743 12.41 31.991 13.8082C31.9153 13.9438 31.8122 14.0623 31.6884 14.1562C31.5646 14.25 31.4227 14.3172 31.2716 14.3536C31.0214 14.4099 30.7597 14.3839 30.5255 14.2793C30.2913 14.1747 30.0971 13.9973 29.972 13.7734C29.5354 12.845 28.8658 12.0454 28.0284 11.4527C27.531 11.2226 26.9864 11.1133 26.4387 11.1336Z" fill="black"/>
<path d="M74.2976 79.8905C86.839 79.8905 97.0058 69.7237 97.0058 57.1823C97.0058 44.6409 86.839 34.4741 74.2976 34.4741C61.7562 34.4741 51.5894 44.6409 51.5894 57.1823C51.5894 69.7237 61.7562 79.8905 74.2976 79.8905Z" fill="#EF5E43"/>
<path d="M74.2976 60.2922C72.6014 60.2933 70.9429 59.7914 69.532 58.8498C68.1211 57.9083 67.0211 56.5695 66.3712 55.0027C65.7213 53.4359 65.5506 51.7116 65.8808 50.0478C66.211 48.384 67.0273 46.8555 68.2263 45.6557C69.4253 44.4559 70.9532 43.6386 72.6168 43.3073C74.2803 42.9759 76.0048 43.1454 77.572 43.7943C79.1392 44.4431 80.4788 45.5422 81.4213 46.9525C82.3638 48.3628 82.8668 50.0209 82.8668 51.7171C82.8638 53.9894 81.9601 56.1679 80.3539 57.7752C78.7477 59.3825 76.5699 60.2876 74.2976 60.2922ZM74.2976 45.3758C73.042 45.3758 71.8146 45.7482 70.7707 46.4459C69.7268 47.1436 68.9133 48.1352 68.4331 49.2953C67.9528 50.4554 67.8275 51.7319 68.0728 52.9633C68.3182 54.1947 68.9233 55.3257 69.8116 56.2131C70.6998 57.1005 71.8313 57.7046 73.0629 57.9488C74.2945 58.1931 75.5709 58.0666 76.7306 57.5853C77.8903 57.104 78.8812 56.2895 79.5779 55.245C80.2746 54.2004 80.6459 52.9727 80.6448 51.7171C80.6341 50.0376 79.9618 48.4299 78.7736 47.2429C77.5854 46.0558 75.9772 45.3849 74.2976 45.3758Z" fill="black"/>
<path d="M59.6597 75.8815C59.6038 75.8875 59.5474 75.8875 59.4915 75.8815C59.3469 75.8603 59.2079 75.8106 59.0826 75.7354C58.9573 75.6603 58.8481 75.561 58.7612 75.4435C58.6744 75.3259 58.6117 75.1924 58.5767 75.0505C58.5417 74.9086 58.5352 74.7612 58.5574 74.6167C60.4662 62.0269 70.0333 57.6929 70.4394 57.5189C70.7071 57.4131 71.0053 57.415 71.2716 57.5243C71.5379 57.6335 71.7515 57.8416 71.8678 58.1049C71.9841 58.3682 71.9939 58.6662 71.8953 58.9366C71.7966 59.207 71.5972 59.4287 71.3387 59.5553C70.9732 59.7178 62.4736 63.6165 60.7562 74.9474C60.7148 75.2083 60.5815 75.4457 60.3805 75.617C60.1794 75.7882 59.9238 75.882 59.6597 75.8815Z" fill="black"/>
<path d="M88.9355 75.8815C88.6687 75.883 88.4103 75.7882 88.2078 75.6145C88.0053 75.4407 87.8723 75.1998 87.8332 74.9359C86.0926 63.5528 77.3494 59.5843 77.2565 59.5437C77.117 59.4886 76.9901 59.4059 76.8834 59.3005C76.7766 59.1951 76.6923 59.0693 76.6353 58.9305C76.5784 58.7918 76.5501 58.6429 76.5521 58.493C76.5541 58.343 76.5863 58.195 76.6469 58.0578C76.7075 57.9205 76.7952 57.797 76.9047 57.6945C77.0142 57.592 77.1432 57.5127 77.2842 57.4613C77.4251 57.4099 77.5749 57.3874 77.7247 57.3953C77.8744 57.4033 78.0211 57.4413 78.1558 57.5073C78.5619 57.6814 88.1291 62.0153 90.0379 74.6052C90.0601 74.7496 90.0535 74.897 90.0185 75.0389C89.9835 75.1808 89.9208 75.3144 89.834 75.4319C89.7472 75.5495 89.6379 75.6487 89.5126 75.7239C89.3873 75.799 89.2484 75.8487 89.1038 75.8699C89.0482 75.8794 88.9918 75.8833 88.9355 75.8815Z" fill="black"/>
<path d="M18.0667 62.9667V63.8718H21.3389V66.5928H18.0667V77.2913H14.2608V66.5928H12.6769V63.8718H14.2608V63.0421C14.2222 62.4099 14.3165 61.7766 14.5376 61.1829C14.7587 60.5893 15.1016 60.0486 15.5443 59.5955C15.9869 59.1424 16.5196 58.7871 17.1079 58.5523C17.6963 58.3176 18.3272 58.2086 18.9602 58.2325C20.3351 58.2414 21.6516 58.7892 22.6269 59.7583L21.2693 62.3053C21.0526 62.0197 20.7752 61.7857 20.4572 61.6202C20.1392 61.4547 19.7884 61.3617 19.4302 61.348C19.2503 61.3432 19.0715 61.3776 18.9062 61.4487C18.7409 61.5198 18.593 61.626 18.4729 61.7599C18.1899 62.0965 18.0448 62.5276 18.0667 62.9667Z" fill="white"/>
</g>
<defs>
<clipPath id="clip0_1_613">
<rect width="97" height="85.4022" fill="white"/>
</clipPath>
</defs>
</svg>
