<svg width="97" height="87" viewBox="0 0 97 87" fill="none" xmlns="http://www.w3.org/2000/svg">
<g clip-path="url(#clip0_9_15)">
<path d="M48.5 75.4498C63.8542 75.4498 76.3012 63.0028 76.3012 47.6487C76.3012 32.2945 63.8542 19.8475 48.5 19.8475C33.1459 19.8475 20.6989 32.2945 20.6989 47.6487C20.6989 63.0028 33.1459 75.4498 48.5 75.4498Z" fill="#EF5E43"/>
<path d="M48.5 57.9312C42.7703 57.9312 37.1692 56.2321 32.4052 53.0487C27.6412 49.8653 23.9282 45.3407 21.7358 40.047C19.5435 34.7533 18.9701 28.9284 20.0884 23.3088C21.2066 17.6893 23.9662 12.5276 28.0182 8.47648C32.0701 4.42539 37.2324 1.66687 42.8522 0.549793C48.472 -0.567282 54.2968 0.00726126 59.59 2.20076C64.8832 4.39426 69.4071 8.1082 72.5895 12.8729C75.7719 17.6375 77.4698 23.2389 77.4686 28.9686C77.4606 36.6486 74.4058 44.0116 68.9746 49.4415C63.5435 54.8715 56.1799 57.9248 48.5 57.9312ZM48.5 2.335C43.2323 2.335 38.083 3.89703 33.7031 6.82357C29.3232 9.75012 25.9095 13.9097 23.8937 18.7764C21.8779 23.6431 21.3504 28.9982 22.3781 34.1646C23.4058 39.331 25.9424 44.0767 29.6671 47.8015C33.3919 51.5263 38.1376 54.0629 43.304 55.0905C48.4704 56.1182 53.8256 55.5908 58.6922 53.5749C63.5589 51.5591 67.7185 48.1454 70.645 43.7655C73.5716 39.3856 75.1336 34.2363 75.1336 28.9686C75.1272 21.9069 72.3191 15.1363 67.3257 10.1429C62.3323 5.14954 55.5617 2.34144 48.5 2.335Z" fill="black"/>
<path d="M28.9686 86.4803C23.2387 86.4815 17.637 84.7834 12.8722 81.6007C8.10743 78.4181 4.3935 73.8938 2.20018 68.6003C0.00685794 63.3067 -0.56733 57.4816 0.550238 51.8616C1.66781 46.2417 4.42693 41.0794 8.47863 37.0277C12.5303 32.976 17.6926 30.2169 23.3125 29.0993C28.9325 27.9817 34.7576 28.5559 40.0512 30.7493C45.3448 32.9426 49.869 36.6565 53.0517 41.4213C56.2343 46.1861 57.9324 51.7877 57.9312 57.5177C57.9216 65.1961 54.8671 72.5572 49.4376 77.9867C44.0082 83.4161 36.647 86.4706 28.9686 86.4803ZM28.9686 30.8841C23.7007 30.8829 18.5508 32.4439 14.1701 35.3697C9.78944 38.2955 6.3748 42.4547 4.35803 47.3212C2.34125 52.1878 1.81295 57.5431 2.83993 62.71C3.86691 67.8768 6.40304 72.623 10.1276 76.3484C13.8521 80.0738 18.5978 82.611 23.7644 83.6392C28.9309 84.6673 34.2864 84.1402 39.1534 82.1246C44.0204 80.1089 48.1804 76.6952 51.1072 72.3152C54.034 67.9352 55.5962 62.7856 55.5962 57.5177C55.5882 50.4576 52.7804 43.6888 47.7887 38.6959C42.7969 33.7031 36.0288 30.8937 28.9686 30.8841Z" fill="black"/>
<path d="M68.0374 86.4803C62.3074 86.4815 56.7058 84.7834 51.941 81.6007C47.1762 78.4181 43.4623 73.8938 41.2689 68.6003C39.0756 63.3067 38.5014 57.4816 39.619 51.8616C40.7366 46.2417 43.4957 41.0794 47.5474 37.0277C51.5991 32.976 56.7614 30.2169 62.3813 29.0993C68.0012 27.9817 73.8264 28.5559 79.12 30.7493C84.4135 32.9426 88.9378 36.6565 92.1204 41.4213C95.3031 46.1861 97.0012 51.7877 97 57.5177C96.9903 65.1961 93.9358 72.5572 88.5064 77.9867C83.0769 83.4161 75.7158 86.4706 68.0374 86.4803ZM68.0374 30.8841C62.7695 30.8829 57.6196 32.4439 53.2389 35.3697C48.8582 38.2955 45.4436 42.4547 43.4268 47.3212C41.41 52.1878 40.8817 57.5431 41.9087 62.71C42.9357 67.8768 45.4718 72.623 49.1963 76.3484C52.9209 80.0738 57.6665 82.611 62.8331 83.6392C67.9997 84.6673 73.3552 84.1402 78.2222 82.1246C83.0892 80.1089 87.2492 76.6952 90.176 72.3152C93.1028 67.9352 94.665 62.7856 94.665 57.5177C94.6569 50.4576 91.8491 43.6888 86.8574 38.6959C81.8657 33.7031 75.0976 30.8937 68.0374 30.8841Z" fill="black"/>
</g>
<defs>
<clipPath id="clip0_9_15">
<rect width="97" height="86.4803" fill="white"/>
</clipPath>
</defs>
</svg>
