<svg width="97" height="66" viewBox="0 0 97 66" fill="none" xmlns="http://www.w3.org/2000/svg">
<path d="M33.8919 26.4443H25.6702V41.402H33.8919V26.4443Z" fill="#2D41E2"/>
<path d="M46.6709 11.2932H38.4492V41.402H46.6709V11.2932Z" fill="#FEC1C0"/>
<path d="M59.4498 18.0291H51.2281V41.4019H59.4498V18.0291Z" fill="#2D41E2"/>
<path d="M72.2225 22.5801H64.0008V41.3958H72.2225V22.5801Z" fill="#FEC1C0"/>
<path d="M94.7713 56.4033H2.22867C1.63809 56.4017 1.07218 56.1664 0.654581 55.7488C0.236981 55.3312 0.00164735 54.7652 0 54.1747L0 30.2587C0.0217878 29.9581 0.156543 29.677 0.37717 29.4718C0.597797 29.2666 0.887935 29.1525 1.18925 29.1525C1.49056 29.1525 1.78069 29.2666 2.00132 29.4718C2.22195 29.677 2.3567 29.9581 2.37849 30.2587V54.0248H94.6277V2.37849H2.37849V17.1613C2.3567 17.4619 2.22195 17.743 2.00132 17.9482C1.78069 18.1534 1.49056 18.2675 1.18925 18.2675C0.887935 18.2675 0.597797 18.1534 0.37717 17.9482C0.156543 17.743 0.0217878 17.4619 0 17.1613L0 2.22867C0 1.63759 0.234805 1.07072 0.652761 0.652761C1.07072 0.234805 1.63759 0 2.22867 0L94.7713 0C95.3624 0 95.9293 0.234805 96.3472 0.652761C96.7652 1.07072 97 1.63759 97 2.22867V54.1747C96.9984 54.7652 96.763 55.3312 96.3454 55.7488C95.9278 56.1664 95.3619 56.4017 94.7713 56.4033Z" fill="black"/>
<path d="M34.5412 65.4927C34.2206 65.4931 33.9121 65.3702 33.6797 65.1494C33.4473 64.9286 33.3087 64.6268 33.2927 64.3066V55.985C33.2927 55.6539 33.4242 55.3363 33.6584 55.1021C33.8925 54.868 34.2101 54.7365 34.5412 54.7365C34.8724 54.7365 35.1899 54.868 35.4241 55.1021C35.6582 55.3363 35.7898 55.6539 35.7898 55.985V64.3004C35.7753 64.6217 35.6374 64.925 35.4048 65.1471C35.1722 65.3692 34.8628 65.4931 34.5412 65.4927Z" fill="black"/>
<path d="M63.8822 65.4927C63.5616 65.4931 63.2531 65.3702 63.0207 65.1494C62.7883 64.9286 62.6497 64.6268 62.6336 64.3066V55.985C62.6336 55.6539 62.7652 55.3363 62.9993 55.1021C63.2335 54.868 63.5511 54.7365 63.8822 54.7365C64.2133 54.7365 64.5309 54.868 64.765 55.1021C64.9992 55.3363 65.1307 55.6539 65.1307 55.985V64.3004C65.1163 64.6217 64.9784 64.925 64.7458 65.1471C64.5132 65.3692 64.2038 65.4931 63.8822 65.4927Z" fill="black"/>
<path d="M71.5108 65.474H27.5306C27.1994 65.474 26.8819 65.3425 26.6477 65.1083C26.4136 64.8742 26.282 64.5566 26.282 64.2255C26.282 63.8943 26.4136 63.5768 26.6477 63.3426C26.8819 63.1085 27.1994 62.9769 27.5306 62.9769H71.5108C71.8419 62.9769 72.1595 63.1085 72.3937 63.3426C72.6278 63.5768 72.7594 63.8943 72.7594 64.2255C72.7594 64.5566 72.6278 64.8742 72.3937 65.1083C72.1595 65.3425 71.8419 65.474 71.5108 65.474Z" fill="black"/>
<path d="M81.0185 41.1273H18.0228C17.6982 41.1273 17.4297 41.1273 17.4297 40.8152C17.4297 40.5031 17.6982 40.5031 18.0228 40.5031H81.0185C81.3431 40.5031 81.6116 40.5031 81.6116 40.8152C81.6116 41.1273 81.3431 41.1273 81.0185 41.1273Z" fill="black"/>
</svg>
