<svg width="97" height="115" viewBox="0 0 97 115" fill="none" xmlns="http://www.w3.org/2000/svg">
<g clip-path="url(#clip0_9_22)">
<path d="M60.2893 85.3119C77.5512 85.3119 91.5447 71.3184 91.5447 54.0565C91.5447 36.7947 77.5512 22.8012 60.2893 22.8012C43.0275 22.8012 29.034 36.7947 29.034 54.0565C29.034 71.3184 43.0275 85.3119 60.2893 85.3119Z" fill="#FEAC95"/>
<path d="M1.25439 91.4009C1.00719 91.4003 0.765692 91.3266 0.560237 91.1891C0.354782 91.0516 0.194526 90.8565 0.0995963 90.6283C0.00466618 90.4 -0.020706 90.1488 0.0266663 89.9062C0.0740386 89.6635 0.192043 89.4403 0.36586 89.2645L22.3635 67.293C22.5948 67.0531 22.912 66.9148 23.2453 66.9087C23.5785 66.9025 23.9006 67.029 24.1406 67.2604C24.3805 67.4917 24.5188 67.8089 24.5249 68.1421C24.5311 68.4754 24.4046 68.7974 24.1732 69.0374L2.14292 91.0351C2.02634 91.1517 1.88779 91.2442 1.73528 91.307C1.58277 91.3698 1.41932 91.4017 1.25439 91.4009Z" fill="black"/>
<path d="M4.18782 111.935C3.85592 111.93 3.53825 111.8 3.29929 111.569C3.0647 111.333 2.93304 111.014 2.93304 110.681C2.93304 110.348 3.0647 110.028 3.29929 109.792L29.7004 83.3976C29.8137 83.2692 29.9522 83.1653 30.1072 83.0924C30.2623 83.0195 30.4306 82.9791 30.6018 82.9738C30.7731 82.9684 30.9436 82.9982 31.1029 83.0613C31.2622 83.1244 31.4068 83.2194 31.528 83.3406C31.6491 83.4617 31.7442 83.6064 31.8072 83.7657C31.8703 83.9249 31.9001 84.0955 31.8948 84.2667C31.8894 84.4379 31.8491 84.6063 31.7762 84.7613C31.7033 84.9163 31.5994 85.0548 31.4709 85.1681L5.07635 111.569C4.83739 111.8 4.51972 111.93 4.18782 111.935Z" fill="black"/>
<path d="M24.722 114.869C24.3901 114.864 24.0724 114.733 23.8335 114.503C23.5989 114.266 23.4672 113.947 23.4672 113.614C23.4672 113.281 23.5989 112.962 23.8335 112.726L42.9761 93.5831C43.0945 93.4664 43.2347 93.3742 43.3887 93.3117C43.5428 93.2492 43.7076 93.2176 43.8738 93.2188C44.0401 93.2201 44.2044 93.254 44.3575 93.3187C44.5106 93.3835 44.6495 93.4777 44.7662 93.5961C44.8829 93.7145 44.9751 93.8548 45.0376 94.0088C45.1001 94.1628 45.1316 94.3277 45.1304 94.4939C45.1292 94.6601 45.0952 94.8245 45.0305 94.9776C44.9658 95.1307 44.8715 95.2696 44.7531 95.3863L25.6105 114.529C25.3676 114.75 25.0503 114.871 24.722 114.869Z" fill="black"/>
<path d="M75.8713 46.4191C75.55 46.4182 75.2413 46.294 75.0089 46.0722C74.7765 45.8503 74.638 45.5478 74.6221 45.2269C74.6062 44.906 74.714 44.5912 74.9233 44.3475C75.1327 44.1037 75.4275 43.9496 75.7472 43.9169C76.1522 43.8777 76.5573 43.8254 76.9493 43.7601C77.1123 43.7343 77.2788 43.741 77.4392 43.7796C77.5997 43.8182 77.751 43.888 77.8844 43.9851C78.0179 44.0821 78.131 44.2045 78.2171 44.3453C78.3033 44.486 78.3609 44.6424 78.3866 44.8054C78.4124 44.9684 78.4057 45.1349 78.3671 45.2954C78.3285 45.4558 78.2587 45.6071 78.1616 45.7406C78.0646 45.874 77.9422 45.9871 77.8014 46.0732C77.6606 46.1594 77.5043 46.217 77.3413 46.2427C76.897 46.3081 76.4528 46.3669 76.0346 46.4126L75.8713 46.4191ZM69.4883 46.1251C69.41 46.1316 69.3313 46.1316 69.2531 46.1251C68.8088 46.0402 68.3645 45.9357 67.9464 45.8246C67.7868 45.7817 67.6372 45.7078 67.5062 45.6071C67.3752 45.5064 67.2653 45.3809 67.1828 45.2377C67.1003 45.0945 67.0468 44.9365 67.0254 44.7726C67.0039 44.6088 67.015 44.4423 67.0579 44.2827C67.1008 44.1232 67.1747 43.9736 67.2754 43.8426C67.3761 43.7116 67.5016 43.6017 67.6448 43.5191C67.7879 43.4366 67.946 43.3831 68.1098 43.3617C68.2737 43.3403 68.4401 43.3513 68.5997 43.3942C68.9852 43.4987 69.3837 43.5837 69.7757 43.6555C70.0856 43.7108 70.3634 43.8807 70.5539 44.1313C70.7445 44.3819 70.8338 44.695 70.8042 45.0084C70.7745 45.3218 70.6282 45.6127 70.3941 45.8232C70.16 46.0337 69.8553 46.1484 69.5405 46.1447L69.4883 46.1251ZM83.2474 44.3481C82.9634 44.3477 82.6879 44.2509 82.466 44.0735C82.2441 43.8962 82.089 43.6488 82.026 43.3718C81.963 43.0949 81.9959 42.8047 82.1193 42.5489C82.2427 42.293 82.4492 42.0866 82.7051 41.9634C83.071 41.7935 83.4238 41.6041 83.7766 41.4081C84.0677 41.2469 84.4109 41.208 84.7307 41.2999C85.0504 41.3918 85.3206 41.607 85.4818 41.8981C85.6429 42.1892 85.6818 42.5324 85.5899 42.8522C85.4981 43.1719 85.2829 43.4421 84.9918 43.6033C84.5998 43.8189 84.1947 44.0279 83.7897 44.2566C83.618 44.3273 83.4327 44.3585 83.2474 44.3481ZM62.3408 43.3877C62.1101 43.3896 61.8836 43.3262 61.6875 43.2047C61.2955 42.9761 60.9166 42.7278 60.5442 42.473C60.3998 42.3841 60.2749 42.2668 60.1772 42.1282C60.0794 41.9896 60.0108 41.8327 59.9754 41.6668C59.94 41.501 59.9386 41.3297 59.9713 41.1633C60.004 40.9969 60.07 40.8388 60.1655 40.6987C60.261 40.5586 60.3839 40.4392 60.5268 40.3479C60.6697 40.2566 60.8297 40.1953 60.997 40.1675C61.1643 40.1398 61.3354 40.1463 61.5002 40.1866C61.6649 40.2269 61.8197 40.3001 61.9553 40.402C62.2885 40.6306 62.6087 40.8462 62.9745 41.0553C63.2115 41.1963 63.3955 41.4114 63.4979 41.6675C63.6003 41.9235 63.6155 42.2061 63.5411 42.4717C63.4667 42.7372 63.3069 42.9709 63.0864 43.1364C62.8659 43.302 62.597 43.3903 62.3212 43.3877H62.3408ZM89.4671 39.8532C89.2193 39.8556 88.9764 39.7842 88.7693 39.6481C88.5622 39.512 88.4003 39.3173 88.3043 39.0888C88.2083 38.8603 88.1825 38.6085 88.2302 38.3653C88.2779 38.1221 88.3969 37.8986 88.572 37.7233C88.853 37.4358 89.1274 37.1353 89.3887 36.8348C89.6111 36.6019 89.9146 36.4635 90.2363 36.4482C90.558 36.433 90.8732 36.542 91.1167 36.7528C91.3602 36.9635 91.5133 37.2598 91.5443 37.5804C91.5753 37.9009 91.4819 38.2211 91.2834 38.4746C90.9894 38.8209 90.6823 39.128 90.3622 39.4808C90.1249 39.7186 89.803 39.8525 89.4671 39.8532ZM56.5523 38.3636C56.3651 38.3636 56.1803 38.3214 56.0117 38.2399C55.8431 38.1584 55.6951 38.0399 55.5788 37.8932C55.2914 37.5469 55.0235 37.1876 54.7556 36.8217C54.6537 36.6886 54.5795 36.5365 54.5374 36.3743C54.4952 36.212 54.486 36.043 54.5103 35.8772C54.5346 35.7113 54.5919 35.552 54.6788 35.4087C54.7657 35.2654 54.8804 35.1409 55.0162 35.0426C55.152 34.9444 55.3061 34.8744 55.4695 34.8367C55.6328 34.799 55.802 34.7944 55.9671 34.8232C56.1322 34.852 56.2899 34.9136 56.4308 35.0044C56.5717 35.0952 56.693 35.2133 56.7875 35.3517C57.0227 35.6784 57.271 36.005 57.5258 36.3121C57.7353 36.5703 57.8338 36.9012 57.7995 37.232C57.7652 37.5627 57.6009 37.8664 57.3428 38.0761C57.1211 38.2615 56.8413 38.3632 56.5523 38.3636ZM93.7921 33.5616C93.6143 33.5601 93.4387 33.5223 93.276 33.4505C93.1236 33.3852 92.9856 33.2902 92.8701 33.1712C92.7546 33.0522 92.6638 32.9114 92.6031 32.7571C92.5423 32.6028 92.5128 32.4379 92.5161 32.2721C92.5195 32.1063 92.5557 31.9428 92.6227 31.7911C92.786 31.4187 92.9428 31.0463 93.0931 30.6673C93.1474 30.5072 93.2335 30.3597 93.3462 30.2337C93.4589 30.1077 93.5959 30.0058 93.749 29.9341C93.9021 29.8624 94.0682 29.8224 94.2371 29.8165C94.4061 29.8106 94.5745 29.8389 94.7322 29.8997C94.89 29.9605 95.0338 30.0525 95.1551 30.1703C95.2763 30.2881 95.3725 30.4292 95.4379 30.5851C95.5033 30.7411 95.5364 30.9086 95.5354 31.0776C95.5344 31.2467 95.4992 31.4138 95.432 31.5689C95.2687 31.9936 95.0923 32.4117 94.9093 32.8233C94.8119 33.0393 94.6552 33.2233 94.4575 33.354C94.2598 33.4846 94.0291 33.5566 93.7921 33.5616ZM52.8283 31.6735C52.5628 31.6788 52.3024 31.6002 52.0842 31.4489C51.866 31.2976 51.7011 31.0812 51.6131 30.8307C51.4629 30.3995 51.3322 29.9683 51.2081 29.524C51.1533 29.3618 51.1324 29.19 51.1465 29.0194C51.1606 28.8488 51.2096 28.6828 51.2903 28.5318C51.3709 28.3808 51.4817 28.2479 51.6157 28.1413C51.7497 28.0347 51.9041 27.9567 52.0693 27.912C52.2346 27.8674 52.4073 27.857 52.5768 27.8816C52.7462 27.9062 52.9088 27.9652 53.0546 28.055C53.2004 28.1448 53.3262 28.2635 53.4244 28.4038C53.5225 28.5441 53.5909 28.7029 53.6254 28.8707C53.7365 29.2627 53.854 29.6416 53.9847 30.0205C54.0519 30.2093 54.0726 30.4116 54.045 30.6101C54.0175 30.8086 53.9426 30.9975 53.8266 31.161C53.7106 31.3244 53.5569 31.4575 53.3786 31.5489C53.2003 31.6404 53.0026 31.6876 52.8022 31.6865L52.8283 31.6735ZM95.6868 26.1332H95.5888C95.4245 26.1208 95.2642 26.0762 95.1172 26.0018C94.9701 25.9274 94.8392 25.8248 94.7318 25.6999C94.6244 25.5749 94.5427 25.43 94.4913 25.2734C94.4399 25.1168 94.4199 24.9517 94.4324 24.7873C94.4651 24.3888 94.4847 24.036 94.4912 23.6375C94.4964 23.3088 94.631 22.9954 94.8659 22.7655C95.1008 22.5355 95.4169 22.4075 95.7456 22.4092C95.904 22.3995 96.0628 22.4221 96.2122 22.4756C96.3616 22.5292 96.4985 22.6126 96.6147 22.7208C96.7308 22.829 96.8237 22.9597 96.8877 23.1049C96.9517 23.2502 96.9855 23.4069 96.9869 23.5656V23.6767C96.9869 24.1079 96.9869 24.5456 96.9216 24.9833C96.8971 25.2948 96.7566 25.5857 96.528 25.7986C96.2994 26.0115 95.9992 26.1309 95.6868 26.1332ZM51.6131 23.7159C50.9206 23.7159 50.3718 23.3566 50.3718 22.6706V22.6248C50.3718 22.2524 50.3718 21.867 50.4306 21.4358C50.442 21.2719 50.4862 21.112 50.5605 20.9655C50.6349 20.819 50.7378 20.689 50.8633 20.583C50.9888 20.477 51.1343 20.3972 51.2911 20.3484C51.448 20.2997 51.613 20.2828 51.7765 20.299C52.1071 20.3305 52.4121 20.4906 52.6259 20.7447C52.8397 20.9988 52.9453 21.3268 52.9198 21.6579C52.9198 22.0434 52.8741 22.2524 52.8675 22.6379C52.8604 22.7926 52.8217 22.9442 52.7538 23.0834C52.6859 23.2227 52.5903 23.3465 52.4729 23.4475C52.3554 23.5484 52.2186 23.6243 52.0707 23.6705C51.9229 23.7166 51.7672 23.7321 51.6131 23.7159ZM94.8963 18.4239C94.6243 18.4242 94.3597 18.3357 94.1427 18.1717C93.9257 18.0078 93.7682 17.7775 93.6942 17.5158C93.5831 17.1238 93.459 16.7383 93.3283 16.3594C93.2191 16.0449 93.2394 15.6999 93.3846 15.4003C93.5297 15.1008 93.788 14.8712 94.1025 14.762C94.417 14.6528 94.7619 14.6731 95.0615 14.8183C95.3611 14.9634 95.5907 15.2217 95.6999 15.5362C95.8501 15.9609 95.9808 16.392 96.1049 16.8428C96.1956 17.1625 96.1557 17.5051 95.994 17.7954C95.8323 18.0857 95.5621 18.3 95.2425 18.3912C95.1335 18.4173 95.0214 18.4283 94.9093 18.4239H94.8963ZM53.0635 16.588C52.9114 16.5884 52.7605 16.5596 52.6193 16.5031C52.4654 16.4451 52.3246 16.3573 52.2048 16.2447C52.085 16.1321 51.9886 15.9969 51.9212 15.847C51.8539 15.697 51.8168 15.5352 51.8121 15.3709C51.8074 15.2066 51.8353 15.0429 51.8941 14.8894C52.0574 14.4647 52.2338 14.0401 52.4167 13.6285C52.5536 13.3252 52.8053 13.0888 53.1166 12.9712C53.4278 12.8536 53.7729 12.8644 54.0762 13.0013C54.3794 13.1381 54.6158 13.3899 54.7335 13.7011C54.8511 14.0123 54.8403 14.3575 54.7034 14.6607C54.5335 15.0331 54.3832 15.4055 54.2395 15.7779C54.1491 16.0165 53.9882 16.2219 53.7781 16.3667C53.5679 16.5114 53.3187 16.5886 53.0635 16.588ZM91.5708 11.5378C91.3718 11.5368 91.1759 11.489 90.9988 11.3982C90.8218 11.3074 90.6686 11.1761 90.5516 11.0151C90.3164 10.6885 90.0682 10.3618 89.8134 10.0547C89.7096 9.92605 89.6321 9.77816 89.5854 9.61954C89.5388 9.46091 89.5238 9.29465 89.5414 9.13024C89.5769 8.7982 89.7429 8.49388 90.0028 8.28421C90.2627 8.07455 90.5953 7.97673 90.9273 8.01226C91.2594 8.04779 91.5637 8.21377 91.7734 8.47368C92.0608 8.81995 92.3352 9.17928 92.5966 9.54514C92.7327 9.73215 92.8145 9.95316 92.8328 10.1837C92.8512 10.4143 92.8055 10.6455 92.7007 10.8517C92.5959 11.0579 92.4361 11.2311 92.239 11.3522C92.0419 11.4733 91.8152 11.5375 91.5839 11.5378H91.5708ZM57.0031 10.0155C56.7636 10.0146 56.5293 9.94515 56.328 9.81532C56.1267 9.6855 55.9668 9.50076 55.8672 9.28294C55.7675 9.06511 55.7324 8.82332 55.7658 8.58614C55.7992 8.34895 55.8998 8.12629 56.0558 7.94448C56.3498 7.59822 56.6568 7.29115 56.9704 6.94489C57.2018 6.7023 57.52 6.56155 57.8551 6.55358C58.1902 6.54562 58.5147 6.6711 58.7573 6.90242C58.9999 7.13374 59.1406 7.45195 59.1486 7.78706C59.1566 8.12216 59.0311 8.4467 58.7998 8.68928C58.5123 8.98328 58.2444 9.27728 57.9766 9.58434C57.8564 9.72392 57.7068 9.83503 57.5384 9.90961C57.37 9.98419 57.1872 10.0204 57.0031 10.0155ZM86.0763 6.20009C85.8253 6.1975 85.5803 6.12265 85.3707 5.98449C85.0375 5.75583 84.7174 5.54023 84.345 5.33116C84.2039 5.24536 84.081 5.13261 83.9834 4.99933C83.8859 4.86606 83.8155 4.71487 83.7764 4.5544C83.7373 4.39394 83.7301 4.22734 83.7554 4.06411C83.7806 3.90089 83.8378 3.74424 83.9236 3.6031C84.0094 3.46196 84.1221 3.33911 84.2554 3.24155C84.3887 3.14399 84.5399 3.07364 84.7003 3.03451C84.8608 2.99538 85.0274 2.98824 85.1906 3.01349C85.3539 3.03875 85.5105 3.09591 85.6517 3.1817C86.0371 3.41037 86.4226 3.6521 86.795 3.9069C87.0175 4.05751 87.1857 4.27557 87.275 4.52899C87.3643 4.78242 87.3698 5.0578 87.2908 5.3146C87.2117 5.5714 87.0524 5.79604 86.8361 5.95545C86.6198 6.11486 86.3581 6.20062 86.0894 6.20009H86.0763ZM62.9484 5.18089C62.6719 5.17984 62.4034 5.08743 62.1848 4.91804C61.9663 4.74864 61.8098 4.51177 61.7397 4.24425C61.6697 3.97672 61.69 3.69355 61.7975 3.43877C61.905 3.18399 62.0937 2.97188 62.3343 2.83544C62.7263 2.6133 63.1248 2.40424 63.5364 2.18211C63.8362 2.03742 64.1811 2.01775 64.4954 2.1274C64.8097 2.23706 65.0675 2.46707 65.2122 2.76684C65.3569 3.0666 65.3766 3.41156 65.2669 3.72584C65.1572 4.04011 64.9272 4.29795 64.6275 4.44263C64.2616 4.6125 63.9088 4.80196 63.556 4.99796C63.3716 5.10794 63.1629 5.17077 62.9484 5.18089ZM79.0922 3.0641C78.9865 3.06377 78.8812 3.05061 78.7786 3.0249C78.3931 2.9269 77.9946 2.84197 77.6026 2.76357C77.4367 2.73721 77.2777 2.67778 77.1352 2.5888C76.9927 2.49983 76.8695 2.38314 76.7729 2.24564C76.6763 2.10814 76.6084 1.95265 76.5731 1.78838C76.5378 1.62412 76.5358 1.45444 76.5673 1.2894C76.5988 1.12437 76.6632 0.967345 76.7566 0.827657C76.8499 0.68797 76.9704 0.568462 77.1108 0.476227C77.2513 0.383993 77.4088 0.320912 77.5741 0.290727C77.7394 0.260543 77.909 0.263871 78.073 0.300514C78.5173 0.385447 78.955 0.483446 79.3797 0.594513C79.6748 0.670036 79.9324 0.850384 80.1043 1.10189C80.2762 1.3534 80.3507 1.65887 80.3139 1.96128C80.2771 2.2637 80.1315 2.54239 79.9043 2.74532C79.6771 2.94826 79.3838 3.06157 79.0791 3.0641H79.0922ZM70.1742 2.6721C69.8558 2.6762 69.5477 2.55902 69.3125 2.34433C69.0773 2.12964 68.9325 1.83352 68.9076 1.51602C68.8826 1.19853 68.9794 0.88344 69.1782 0.634662C69.3771 0.385885 69.6631 0.222047 69.9782 0.176381C70.4225 0.104515 70.8733 0.0457148 71.3241 0.00651499C71.4901 -0.0141087 71.6586 -0.00130972 71.8196 0.0441586C71.9806 0.089627 72.1309 0.166846 72.2617 0.27127C72.3924 0.375694 72.5009 0.505214 72.5808 0.652204C72.6607 0.799195 72.7104 0.960687 72.727 1.12717C72.7435 1.29366 72.7266 1.46178 72.6772 1.62163C72.6278 1.78148 72.547 1.92984 72.4394 2.05797C72.3318 2.1861 72.1997 2.29141 72.0508 2.36771C71.9019 2.44401 71.7392 2.48975 71.5724 2.50224C71.1738 2.54144 70.7688 2.5937 70.3768 2.6525C70.3101 2.66549 70.2422 2.67205 70.1742 2.6721Z" fill="black"/>
</g>
<defs>
<clipPath id="clip0_9_22">
<rect width="97" height="114.869" fill="white"/>
</clipPath>
</defs>
</svg>
