<svg width="97" height="94" viewBox="0 0 97 94" fill="none" xmlns="http://www.w3.org/2000/svg">
<path d="M94.6599 84.3287H2.61434C2.02699 84.3271 1.46416 84.0918 1.04884 83.6742C0.633526 83.2566 0.399482 82.6908 0.397858 82.1002L0.397858 58.1876C0.397858 57.8724 0.522402 57.5701 0.744094 57.3472C0.965785 57.1243 1.26646 56.9991 1.57998 56.9991C1.8935 56.9991 2.19418 57.1243 2.41587 57.3472C2.63756 57.5701 2.7621 57.8724 2.7621 58.1876V81.9517H94.4998V30.3318H2.7621V45.0892C2.7621 45.4044 2.63756 45.7067 2.41587 45.9296C2.19418 46.1525 1.8935 46.2777 1.57998 46.2777C1.26646 46.2777 0.965785 46.1525 0.744094 45.9296C0.522402 45.7067 0.397858 45.4044 0.397858 45.0892L0.397858 30.1585C0.397858 29.5675 0.631379 29.0007 1.04705 28.5828C1.46272 28.1648 2.02649 27.9301 2.61434 27.9301H94.6599C95.2477 27.9301 95.8115 28.1648 96.2272 28.5828C96.6428 29.0007 96.8764 29.5675 96.8764 30.1585V82.1002C96.8747 82.6908 96.6407 83.2566 96.2254 83.6742C95.81 84.0918 95.2472 84.3271 94.6599 84.3287Z" fill="black"/>
<path d="M33.7928 93.1249C33.4746 93.1252 33.1686 93.0016 32.9391 92.78C32.7095 92.5584 32.5742 92.2561 32.5615 91.9364V83.6168C32.5615 83.2885 32.6912 82.9736 32.9221 82.7414C33.1531 82.5092 33.4663 82.3788 33.7928 82.3788C34.1194 82.3788 34.4326 82.5092 34.6636 82.7414C34.8945 82.9736 35.0242 83.2885 35.0242 83.6168V91.9364C35.0115 92.2561 34.8762 92.5584 34.6466 92.78C34.417 93.0016 34.1111 93.1252 33.7928 93.1249Z" fill="black"/>
<path d="M63.3459 93.1249C63.0277 93.1252 62.7217 93.0016 62.4922 92.78C62.2626 92.5584 62.1273 92.2561 62.1145 91.9364V83.6168C62.1145 83.2885 62.2443 82.9736 62.4752 82.7414C62.7061 82.5092 63.0193 82.3788 63.3459 82.3788C63.6725 82.3788 63.9857 82.5092 64.2166 82.7414C64.4476 82.9736 64.5773 83.2885 64.5773 83.6168V91.9364C64.5646 92.2561 64.4292 92.5584 64.1997 92.78C63.9701 93.0016 63.6641 93.1252 63.3459 93.1249Z" fill="black"/>
<path d="M70.4879 92.5121H26.774C26.1213 92.5121 25.5918 92.2397 25.5918 91.5835C25.5918 90.9274 26.1213 90.655 26.774 90.655H70.4879C71.1405 90.655 71.67 90.9274 71.67 91.5835C71.67 92.2397 71.1405 92.5121 70.4879 92.5121Z" fill="black"/>
<path d="M49.2774 61.4065C66.1432 61.4065 79.8156 47.6602 79.8156 30.7033C79.8156 13.7463 66.1432 0 49.2774 0C32.4116 0 18.7392 13.7463 18.7392 30.7033C18.7392 47.6602 32.4116 61.4065 49.2774 61.4065Z" fill="#2D41E2"/>
<path d="M54.246 45.8072C54.0558 45.807 53.8683 45.7625 53.6981 45.6772L40.0421 38.5462H35.6091C33.6823 38.5462 31.8344 37.7766 30.4719 36.4067C29.1094 35.0369 28.344 33.179 28.344 31.2418C28.344 29.3045 29.1094 27.4466 30.4719 26.0768C31.8344 24.7069 33.6823 23.9374 35.6091 23.9374H40.0051L53.6365 15.7663C53.8161 15.6583 54.0214 15.6013 54.2306 15.6013C54.4399 15.6013 54.6452 15.6583 54.8248 15.7663C55.0092 15.8668 55.1636 16.0151 55.2719 16.1958C55.3801 16.3765 55.4383 16.583 55.4405 16.7939V44.6497C55.4405 44.8542 55.3878 45.0553 55.2874 45.2332C55.1871 45.4112 55.0425 45.5599 54.8679 45.6648C54.6782 45.7705 54.4625 45.8199 54.246 45.8072ZM35.6091 26.3144C34.3941 26.437 33.2676 27.009 32.4484 27.9195C31.6292 28.83 31.1755 30.014 31.1755 31.2418C31.1755 32.4695 31.6292 33.6535 32.4484 34.564C33.2676 35.4745 34.3941 36.0465 35.6091 36.1691H40.3315C40.5198 36.168 40.7057 36.2126 40.8733 36.2991L53.0639 42.6626V18.88L40.9348 26.1472C40.749 26.2592 40.5358 26.3171 40.3191 26.3144H35.6091Z" fill="white"/>
<path d="M38.1027 37.2648C37.7844 37.265 37.4785 37.1414 37.2489 36.9199C37.0193 36.6983 36.884 36.396 36.8713 36.0763V28.9452C36.8713 28.6168 37.001 28.3019 37.2319 28.0698C37.4629 27.8376 37.7761 27.7072 38.1027 27.7072C38.4292 27.7072 38.7424 27.8376 38.9734 28.0698C39.2043 28.3019 39.334 28.6168 39.334 28.9452V36.0763C39.3213 36.396 39.186 36.6983 38.9564 36.9199C38.7268 37.1414 38.4209 37.265 38.1027 37.2648Z" fill="white"/>
<path d="M60.2121 24.7607C60.1342 24.7619 60.057 24.7472 59.985 24.7174C59.913 24.6876 59.8478 24.6433 59.7934 24.5873C59.7377 24.5331 59.6935 24.4682 59.6632 24.3964C59.633 24.3246 59.6174 24.2475 59.6174 24.1695C59.6174 24.0916 59.633 24.0144 59.6632 23.9426C59.6935 23.8709 59.7377 23.8059 59.7934 23.7517L65.0452 18.4529C65.0915 18.3692 65.1565 18.2974 65.2351 18.2432C65.3137 18.1891 65.4037 18.154 65.498 18.1407C65.5924 18.1275 65.6885 18.1364 65.7789 18.1668C65.8692 18.1973 65.9513 18.2483 66.0186 18.3161C66.086 18.3838 66.1368 18.4663 66.1671 18.5572C66.1973 18.648 66.2062 18.7446 66.193 18.8395C66.1799 18.9343 66.1449 19.0248 66.0911 19.1038C66.0372 19.1828 65.9658 19.2482 65.8826 19.2947L60.6061 24.5935C60.5015 24.6989 60.3601 24.7589 60.2121 24.7607Z" fill="white"/>
<path d="M65.4823 43.1207C65.4046 43.1216 65.3274 43.1067 65.2555 43.0769C65.1835 43.0472 65.1183 43.0031 65.0637 42.9474L59.7934 37.6486C59.73 37.5316 59.7058 37.3971 59.7245 37.2652C59.7432 37.1333 59.8038 37.011 59.8971 36.9164C59.9905 36.8219 60.1117 36.7601 60.2427 36.7404C60.3738 36.7206 60.5077 36.7439 60.6246 36.8067L65.901 42.0932C65.9719 42.18 66.0179 42.2846 66.0342 42.3958C66.0504 42.507 66.0363 42.6205 65.9933 42.7242C65.9503 42.8278 65.88 42.9178 65.79 42.9844C65.7 43.051 65.5936 43.0917 65.4823 43.1022V43.1207Z" fill="white"/>
<path d="M68.1237 30.6104H61.0309C60.7046 30.6104 60.4153 30.9385 60.4153 30.6104C60.4153 30.2823 60.68 30.6104 61.0309 30.6104H68.1237C68.45 30.6104 68.7394 30.2823 68.7394 30.6104C68.7394 30.9385 68.45 30.6104 68.1237 30.6104Z" fill="white"/>
</svg>
