<svg width="98" height="66" viewBox="0 0 98 66" fill="none" xmlns="http://www.w3.org/2000/svg">
<path d="M34.3656 26.4443H26.1881V41.402H34.3656V26.4443Z" fill="#2D41E2"/>
<path d="M47.0759 11.2932H38.8983V41.402H47.0759V11.2932Z" fill="#FEAC95"/>
<path d="M59.7861 18.0291H51.6086V41.4019H59.7861V18.0291Z" fill="#2D41E2"/>
<path d="M72.4901 22.5801H64.3126V41.3958H72.4901V22.5801Z" fill="#FEAC95"/>
<path d="M94.9177 56.4033H2.8726C2.28521 56.4017 1.72234 56.1664 1.30698 55.7488C0.891629 55.3312 0.65756 54.7652 0.655922 54.1747L0.655922 30.2587C0.677593 29.9581 0.811623 29.677 1.03106 29.4718C1.25051 29.2666 1.53908 29.1525 1.83877 29.1525C2.13846 29.1525 2.42704 29.2666 2.64648 29.4718C2.86592 29.677 2.99995 29.9581 3.02163 30.2587V54.0248H94.7749V2.37849H3.02163V17.1613C2.99995 17.4619 2.86592 17.743 2.64648 17.9482C2.42704 18.1534 2.13846 18.2675 1.83877 18.2675C1.53908 18.2675 1.25051 18.1534 1.03106 17.9482C0.811623 17.743 0.677593 17.4619 0.655922 17.1613L0.655922 2.22867C0.655922 1.63759 0.889465 1.07072 1.30517 0.652761C1.72088 0.234805 2.2847 0 2.8726 0L94.9177 0C95.5056 0 96.0694 0.234805 96.4852 0.652761C96.9009 1.07072 97.1344 1.63759 97.1344 2.22867V54.1747C97.1328 54.7652 96.8987 55.3312 96.4833 55.7488C96.068 56.1664 95.5051 56.4017 94.9177 56.4033Z" fill="black"/>
<path d="M35.0114 65.4927C34.6925 65.4931 34.3857 65.3702 34.1546 65.1494C33.9234 64.9286 33.7855 64.6268 33.7696 64.3066V55.985C33.7696 55.6539 33.9004 55.3363 34.1333 55.1021C34.3662 54.868 34.6821 54.7365 35.0114 54.7365C35.3408 54.7365 35.6566 54.868 35.8895 55.1021C36.1224 55.3363 36.2533 55.6539 36.2533 55.985V64.3004C36.2389 64.6217 36.1017 64.925 35.8704 65.1471C35.639 65.3692 35.3313 65.4931 35.0114 65.4927Z" fill="black"/>
<path d="M64.1947 65.4927C63.8758 65.4931 63.569 65.3702 63.3378 65.1494C63.1066 64.9286 62.9688 64.6268 62.9528 64.3066V55.985C62.9528 55.6539 63.0836 55.3363 63.3165 55.1021C63.5494 54.868 63.8653 54.7365 64.1947 54.7365C64.524 54.7365 64.8399 54.868 65.0728 55.1021C65.3057 55.3363 65.4365 55.6539 65.4365 55.985V64.3004C65.4221 64.6217 65.2849 64.925 65.0536 65.1471C64.8222 65.3692 64.5146 65.4931 64.1947 65.4927Z" fill="black"/>
<path d="M71.7822 65.474H28.0385C27.7091 65.474 27.3932 65.3425 27.1603 65.1083C26.9275 64.8742 26.7966 64.5566 26.7966 64.2255C26.7966 63.8943 26.9275 63.5768 27.1603 63.3426C27.3932 63.1085 27.7091 62.9769 28.0385 62.9769H71.7822C72.1116 62.9769 72.4275 63.1085 72.6603 63.3426C72.8932 63.5768 73.0241 63.8943 73.0241 64.2255C73.0241 64.5566 72.8932 64.8742 72.6603 65.1083C72.4275 65.3425 72.1116 65.474 71.7822 65.474Z" fill="black"/>
<path d="M81.2389 41.1273H18.5819C18.259 41.1273 17.992 41.1273 17.992 40.8152C17.992 40.5031 18.259 40.5031 18.5819 40.5031H81.2389C81.5617 40.5031 81.8287 40.5031 81.8287 40.8152C81.8287 41.1273 81.5617 41.1273 81.2389 41.1273Z" fill="black"/>
</svg>
