<svg width="106" height="77" viewBox="0 0 106 77" fill="none" xmlns="http://www.w3.org/2000/svg">
<path d="M29.2929 60.573C37.2878 60.573 43.769 53.6692 43.769 45.1528C43.769 36.6365 37.2878 29.7327 29.2929 29.7327C21.298 29.7327 14.8168 36.6365 14.8168 45.1528C14.8168 53.6692 21.298 60.573 29.2929 60.573Z" fill="#FEAC95"/>
<path d="M43.9681 65.8408C43.5809 65.8408 43.2158 66.1354 42.8618 66.1059C42.2754 66.0529 41.8385 65.6699 41.8882 65.0453C41.904 64.9023 41.9462 64.764 42.0124 64.6384C42.0786 64.5128 42.1675 64.4025 42.2739 64.3137C42.3804 64.225 42.5023 64.1596 42.6327 64.1213C42.763 64.083 42.8991 64.0726 43.0333 64.0907C43.3486 64.0907 43.6694 64.1791 43.9902 64.185C44.5766 64.185 45.0468 64.403 45.0412 65.0217C45.0357 65.6404 44.5213 65.8408 43.9681 65.8408ZM49.1125 65.6817C48.859 65.6815 48.6139 65.5849 48.4216 65.4091C48.2292 65.2333 48.1021 64.9901 48.0634 64.7233C48.0247 64.4565 48.0768 64.1837 48.2103 63.9542C48.3439 63.7248 48.55 63.5537 48.7916 63.4721C49.1014 63.366 49.4056 63.254 49.7043 63.1244C49.8349 63.0647 49.9754 63.0335 50.1175 63.0327C50.2595 63.0319 50.4003 63.0615 50.5315 63.1197C50.6627 63.1779 50.7815 63.2635 50.8811 63.3715C50.9806 63.4795 51.0588 63.6077 51.111 63.7485C51.1632 63.8892 51.1883 64.0397 51.1849 64.191C51.1815 64.3423 51.1497 64.4914 51.0913 64.6293C51.0328 64.7673 50.949 64.8914 50.8447 64.9942C50.7405 65.097 50.6179 65.1765 50.4843 65.228C50.1413 65.3753 49.7928 65.5108 49.4333 65.6286C49.3205 65.666 49.2029 65.6839 49.0848 65.6817H49.1125ZM37.8779 65.0924C37.7331 65.0924 37.59 65.0603 37.4575 64.9982C37.1145 64.8371 36.7771 64.6662 36.4452 64.4855C36.1929 64.3511 36.001 64.1155 35.9118 63.8304C35.8225 63.5453 35.8433 63.2341 35.9695 62.9653C36.0956 62.6965 36.3169 62.4921 36.5845 62.3971C36.8522 62.3021 37.1443 62.3242 37.3966 62.4586C37.6843 62.6177 37.9498 62.765 38.2761 62.9064C38.4999 63.0103 38.6833 63.1933 38.7953 63.4243C38.9074 63.6554 38.9412 63.9206 38.8912 64.1751C38.8412 64.4297 38.7104 64.6582 38.5208 64.822C38.3312 64.9859 38.0944 65.0751 37.8502 65.0748L37.8779 65.0924ZM54.5278 62.4586C54.3097 62.4592 54.0967 62.3882 53.9178 62.2553C53.7388 62.1225 53.6026 61.9341 53.5277 61.7159C53.4528 61.4977 53.4427 61.2602 53.499 61.0357C53.5552 60.8112 53.6749 60.6106 53.8419 60.4611C54.0908 60.2372 54.3287 60.0074 54.561 59.7717C54.7635 59.5631 55.0355 59.4487 55.3171 59.4536C55.5987 59.4586 55.867 59.5825 56.0628 59.7982C56.2587 60.0139 56.3661 60.3036 56.3614 60.6036C56.3568 60.9036 56.2404 61.1893 56.038 61.398C55.7724 61.669 55.4848 61.9342 55.2138 62.1934C55.0198 62.3619 54.778 62.4554 54.5278 62.4586ZM32.7335 61.2801C32.5909 61.2794 32.4499 61.2483 32.3188 61.1886C32.1877 61.1289 32.0692 61.0418 31.9702 60.9325C31.7102 60.6496 31.4613 60.3432 31.2234 60.0545C31.1289 59.9418 31.0566 59.8101 31.0107 59.6672C30.9648 59.5242 30.9463 59.3729 30.9562 59.2222C30.9661 59.0715 31.0042 58.9244 31.0683 58.7896C31.1324 58.6549 31.2212 58.5351 31.3295 58.4375C31.4377 58.3399 31.5633 58.2664 31.6986 58.2213C31.834 58.1762 31.9765 58.1604 32.1177 58.175C32.2588 58.1895 32.3959 58.234 32.5206 58.3058C32.6454 58.3776 32.7554 58.4754 32.8441 58.5932C33.0543 58.8584 33.2701 59.1117 33.4969 59.3592C33.6428 59.5188 33.7413 59.7206 33.78 59.9396C33.8187 60.1585 33.7958 60.3847 33.7143 60.5898C33.6328 60.795 33.4962 60.9699 33.3217 61.0927C33.1473 61.2155 32.9426 61.2807 32.7335 61.2801ZM58.4055 57.2733C58.2365 57.2722 58.0699 57.2299 57.9187 57.1496C57.7948 57.0812 57.6847 56.9874 57.5949 56.8737C57.505 56.7599 57.4371 56.6284 57.395 56.4867C57.3528 56.345 57.3373 56.1958 57.3494 56.0477C57.3614 55.8995 57.4007 55.7554 57.4651 55.6235C57.6163 55.3171 57.7546 55.0048 57.88 54.6866C57.9359 54.5504 58.0165 54.4273 58.1171 54.3243C58.2177 54.2213 58.3363 54.1404 58.4663 54.0862C58.5962 54.032 58.7349 54.0057 58.8745 54.0086C59.014 54.0115 59.1516 54.0437 59.2794 54.1033C59.4073 54.1629 59.5229 54.2487 59.6196 54.3559C59.7163 54.463 59.7923 54.5894 59.8431 54.7278C59.894 54.8663 59.9187 55.014 59.916 55.1626C59.9132 55.3113 59.883 55.4578 59.8271 55.594C59.6777 55.9535 59.5228 56.3129 59.3514 56.6664C59.2616 56.8507 59.1257 57.0049 58.9588 57.112C58.7918 57.2191 58.6003 57.275 58.4055 57.2733ZM29.3537 55.7355C29.1414 55.7358 28.9338 55.668 28.7582 55.5408C28.5825 55.4136 28.447 55.233 28.3691 55.0225C28.2308 54.6572 28.1091 54.2859 27.993 53.9088C27.9064 53.6229 27.9301 53.312 28.0587 53.0445C28.1873 52.7771 28.4104 52.5751 28.6789 52.4829C28.9474 52.3907 29.2392 52.4159 29.4903 52.5529C29.7413 52.6899 29.931 52.9276 30.0175 53.2135C30.1171 53.5435 30.2222 53.8676 30.3439 54.1917C30.4472 54.4706 30.4423 54.7819 30.3303 55.057C30.2182 55.3321 30.0083 55.5486 29.7465 55.6589C29.6212 55.7103 29.488 55.7363 29.3537 55.7355ZM60.1258 50.8979H60.0096C59.7296 50.8724 59.4705 50.7297 59.289 50.501C59.1076 50.2724 59.0186 49.9765 59.0416 49.6782C59.0416 49.3364 59.0858 48.9888 59.0914 48.6411C59.0912 48.3346 59.2032 48.0401 59.4036 47.8201C59.6039 47.6001 59.8769 47.4718 60.1645 47.4627C60.3013 47.4603 60.4371 47.4869 60.5642 47.5408C60.6912 47.5948 60.807 47.6751 60.9047 47.777C61.0025 47.8789 61.0803 48.0005 61.1336 48.1346C61.1869 48.2688 61.2148 48.4129 61.2155 48.5586V48.6824C61.2155 49.0477 61.2155 49.4425 61.1602 49.8608C61.1372 50.1387 61.0191 50.398 60.8284 50.5892C60.6377 50.7804 60.3876 50.8903 60.1258 50.8979ZM28.2419 49.3423C27.9572 49.3286 27.6884 49.1985 27.4916 48.9789C27.2948 48.7594 27.1851 48.4674 27.1854 48.1638C27.1854 48.1285 27.1854 48.0224 27.1854 47.993C27.1854 47.6807 27.1854 47.2859 27.2351 46.9088C27.2428 46.7589 27.2784 46.6121 27.3398 46.4771C27.4012 46.342 27.4873 46.2213 27.5929 46.1219C27.6986 46.0226 27.8217 45.9467 27.9552 45.8986C28.0886 45.8505 28.2298 45.8311 28.3703 45.8417C28.5109 45.8522 28.6481 45.8925 28.7739 45.9601C28.8997 46.0277 29.0116 46.1212 29.1031 46.2353C29.1947 46.3495 29.264 46.4818 29.307 46.6248C29.35 46.7677 29.3659 46.9183 29.3537 47.0679C29.3537 47.4037 29.3095 47.8103 29.304 48.1462C29.3085 48.4537 29.2 48.7511 29.0015 48.9746C28.8031 49.1981 28.5305 49.33 28.2419 49.3423ZM59.4067 44.2337C59.1816 44.2349 58.962 44.1596 58.7799 44.0186C58.5978 43.8777 58.4628 43.6784 58.3944 43.45C58.2948 43.12 58.1842 42.7959 58.0625 42.4778C58.0106 42.3396 57.9847 42.192 57.9863 42.0432C57.9879 41.8944 58.0171 41.7474 58.072 41.6106C58.127 41.4738 58.2067 41.3499 58.3066 41.246C58.4066 41.142 58.5247 41.06 58.6544 41.0047C58.784 40.9493 58.9227 40.9218 59.0623 40.9235C59.202 40.9253 59.34 40.9563 59.4684 41.0148C59.5968 41.0734 59.7132 41.1583 59.8108 41.2647C59.9084 41.3712 59.9853 41.497 60.0373 41.6352C60.1756 42.0064 60.3028 42.3776 60.4134 42.7547C60.4583 42.8966 60.4763 43.0467 60.4663 43.1961C60.4563 43.3455 60.4186 43.4913 60.3553 43.625C60.292 43.7587 60.2044 43.8778 60.0976 43.9752C59.9908 44.0726 59.8668 44.1464 59.733 44.1924C59.6267 44.2229 59.5168 44.2368 59.4067 44.2337ZM29.5363 42.7252C29.3915 42.7251 29.2484 42.693 29.1159 42.631C28.858 42.5118 28.6549 42.2886 28.5512 42.0103C28.4475 41.732 28.4517 41.4212 28.5627 41.1461C28.7102 40.7808 28.8706 40.4213 29.044 40.0678C29.1789 39.8127 29.4015 39.6232 29.6649 39.5393C29.9283 39.4555 30.212 39.4836 30.4563 39.6179C30.7006 39.7522 30.8865 39.9822 30.9749 40.2595C31.0633 40.5368 31.0473 40.8399 30.9302 41.1048C30.779 41.4112 30.6407 41.7235 30.5154 42.0417C30.4337 42.2435 30.2987 42.4155 30.1268 42.5369C29.9549 42.6583 29.7536 42.7237 29.5473 42.7252H29.5363ZM56.3533 38.4474C56.1999 38.4472 56.0484 38.4119 55.9091 38.3438C55.7697 38.2757 55.6458 38.1764 55.5456 38.0526C55.3354 37.7875 55.1142 37.5341 54.8874 37.2807C54.6915 37.0651 54.5841 36.7754 54.5888 36.4754C54.5935 36.1753 54.7098 35.8896 54.9123 35.681C55.1147 35.4723 55.3867 35.3579 55.6683 35.3629C55.95 35.3679 56.2183 35.4918 56.4141 35.7075C56.6686 35.9903 56.9175 36.2967 57.1609 36.5796C57.2932 36.7439 57.3785 36.9453 57.4066 37.1597C57.4347 37.3742 57.4044 37.5927 57.3194 37.7894C57.2343 37.986 57.0981 38.1526 56.9269 38.2692C56.7556 38.3859 56.5565 38.4477 56.3533 38.4474ZM33.082 37.2689C32.8768 37.2617 32.678 37.1912 32.5096 37.0661C32.3412 36.941 32.2105 36.7666 32.1333 36.564C32.056 36.3614 32.0355 36.1392 32.0743 35.9245C32.1131 35.7097 32.2095 35.5116 32.3518 35.3539C32.6174 35.075 32.8939 34.8099 33.1816 34.5585C33.3966 34.4025 33.658 34.336 33.916 34.3717C34.174 34.4074 34.4108 34.5427 34.5814 34.752C34.7519 34.9613 34.8444 35.23 34.8413 35.5072C34.8382 35.7843 34.7397 36.0506 34.5645 36.2555C34.3155 36.4735 34.0777 36.7092 33.8454 36.9508C33.6432 37.1574 33.3732 37.2716 33.0931 37.2689H33.082ZM51.4689 34.3228C51.299 34.3233 51.1318 34.2787 50.9821 34.1932C50.6945 34.04 50.429 33.8868 50.1026 33.7512C49.9671 33.6981 49.8431 33.6162 49.7384 33.5103C49.6336 33.4044 49.5502 33.2769 49.4933 33.1356C49.4363 32.9942 49.407 32.842 49.4072 32.6882C49.4074 32.5344 49.437 32.3822 49.4942 32.241C49.5515 32.0998 49.6351 31.9725 49.7401 31.8669C49.8451 31.7613 49.9692 31.6796 50.1049 31.6268C50.2405 31.574 50.3848 31.5513 50.529 31.5599C50.6732 31.5686 50.8142 31.6085 50.9434 31.6771C51.2864 31.8362 51.6238 32.0012 51.9557 32.1839C52.1684 32.2996 52.3382 32.4882 52.4379 32.7194C52.5376 32.9506 52.5611 33.2108 52.5049 33.458C52.4486 33.7052 52.3158 33.9251 52.1278 34.082C51.9398 34.2389 51.7077 34.3237 51.4689 34.3228ZM38.3204 33.6687C38.0719 33.6709 37.8305 33.5802 37.6383 33.4123C37.4461 33.2445 37.3153 33.0101 37.2686 32.7501C37.2219 32.4901 37.2622 32.2209 37.3827 31.9893C37.5031 31.7577 37.6959 31.5784 37.9276 31.4827C38.2706 31.3354 38.6191 31.2058 38.9731 31.082C39.1066 31.0322 39.248 31.0113 39.3892 31.0205C39.5303 31.0297 39.6684 31.0689 39.7951 31.1357C39.9219 31.2025 40.0348 31.2955 40.1274 31.4095C40.2199 31.5234 40.2902 31.6558 40.334 31.7991C40.3778 31.9423 40.3944 32.0934 40.3826 32.2435C40.3709 32.3936 40.3312 32.5397 40.2657 32.6733C40.2003 32.8068 40.1105 32.9251 40.0015 33.0212C39.8926 33.1172 39.7667 33.1892 39.6314 33.2327C39.3161 33.3388 39.0118 33.4566 38.7076 33.5863C38.5844 33.639 38.4531 33.667 38.3204 33.6687ZM45.5114 32.5256H45.4063C45.0965 32.5256 44.7868 32.4844 44.477 32.4785C44.1961 32.4666 43.9299 32.3412 43.7326 32.1278C43.5353 31.9144 43.4218 31.6289 43.4149 31.3295C43.4127 31.1833 43.4379 31.0381 43.4889 30.9024C43.5399 30.7667 43.6157 30.6431 43.712 30.5389C43.8083 30.4347 43.923 30.352 44.0496 30.2955C44.1762 30.239 44.3121 30.2099 44.4494 30.21H44.56C44.8753 30.21 45.2238 30.21 45.5723 30.2571C45.8539 30.268 46.12 30.3977 46.3119 30.6176C46.5038 30.8375 46.6059 31.1296 46.5956 31.4297C46.5853 31.7297 46.4636 32.0131 46.2571 32.2176C46.0507 32.422 45.7765 32.5307 45.4948 32.5197L45.5114 32.5256Z" fill="black"/>
<path d="M1.33089 51.2631C1.19168 51.2639 1.0537 51.2353 0.924874 51.1791C0.796051 51.1229 0.678926 51.0401 0.580232 50.9356C0.481538 50.831 0.40322 50.7066 0.349779 50.5697C0.296338 50.4328 0.268827 50.286 0.268829 50.1377L0.268829 14.3654C0.270293 13.2032 0.704357 12.0891 1.47584 11.2673C2.24733 10.4455 3.29326 9.98313 4.38431 9.98157H77.7991C78.0808 9.98157 78.3509 10.1008 78.5501 10.3129C78.7493 10.5251 78.8612 10.8128 78.8612 11.1129C78.8612 11.4129 78.7493 11.7007 78.5501 11.9129C78.3509 12.125 78.0808 12.2442 77.7991 12.2442H4.38431C3.85617 12.2442 3.34966 12.4677 2.9762 12.8655C2.60275 13.2633 2.39295 13.8029 2.39295 14.3654V50.1377C2.39295 50.286 2.36544 50.4328 2.312 50.5697C2.25856 50.7066 2.18024 50.831 2.08154 50.9356C1.98285 51.0401 1.86573 51.1229 1.7369 51.1791C1.60808 51.2353 1.4701 51.2639 1.33089 51.2631Z" fill="black"/>
<path d="M84.0387 76.1581H4.38431C3.29326 76.1566 2.24733 75.6942 1.47584 74.8724C0.704356 74.0506 0.270293 72.9364 0.268829 71.7742L0.268829 62.0166C0.268829 61.7165 0.380724 61.4288 0.579899 61.2166C0.779074 61.0044 1.04921 60.8852 1.33089 60.8852C1.61256 60.8852 1.8827 61.0044 2.08188 61.2166C2.28105 61.4288 2.39295 61.7165 2.39295 62.0166V71.7742C2.39295 72.3368 2.60275 72.8764 2.9762 73.2742C3.34965 73.672 3.85616 73.8955 4.38431 73.8955H84.0387C84.5659 73.8939 85.071 73.6697 85.4432 73.2721C85.8155 72.8745 86.0245 72.3358 86.0245 71.7742V36.0727C86.0245 35.7727 86.1364 35.4849 86.3356 35.2728C86.5348 35.0606 86.8049 34.9414 87.0866 34.9414C87.3683 34.9414 87.6384 35.0606 87.8376 35.2728C88.0368 35.4849 88.1486 35.7727 88.1486 36.0727V71.7742C88.1486 72.9359 87.7158 74.0501 86.9452 74.872C86.1746 75.694 85.1292 76.1565 84.0387 76.1581Z" fill="black"/>
<path d="M68.0138 22.8268H2.16616C1.87274 22.8268 1.59135 22.7026 1.38388 22.4816C1.1764 22.2606 1.05984 21.9609 1.05984 21.6483C1.05984 21.3358 1.1764 21.036 1.38388 20.815C1.59135 20.594 1.87274 20.4698 2.16616 20.4698H67.9917C68.2851 20.4698 68.5665 20.594 68.774 20.815C68.9814 21.036 69.098 21.3358 69.098 21.6483C69.098 21.9609 68.9814 22.2606 68.774 22.4816C68.5665 22.7026 68.2851 22.8268 67.9917 22.8268H68.0138Z" fill="black"/>
<path d="M69.452 51.7287C65.9284 55.4762 53.2833 55.3878 53.2833 55.3878C53.2833 55.3878 53.1837 41.9003 56.6907 38.1469C58.4071 36.4902 60.6562 35.6006 62.9717 35.6626C65.2872 35.7246 67.4915 36.7335 69.1276 38.48C70.7636 40.2265 71.706 42.5768 71.7592 45.0434C71.8123 47.5101 70.9723 49.904 69.4133 51.7287H69.452Z" fill="#2D41E2"/>
<path d="M71.2 41.5644C70.6363 41.5646 70.0955 41.3274 69.6954 40.9045L66.8632 37.8876C66.4677 37.4618 66.2458 36.8869 66.2458 36.2879C66.2458 35.6888 66.4677 35.1139 66.8632 34.6881L70.0992 31.2293C70.4975 30.8051 71.0377 30.5668 71.601 30.5668C72.1643 30.5668 72.7045 30.8051 73.1028 31.2293L75.935 34.2462C76.3319 34.6713 76.5547 35.2464 76.5547 35.8459C76.5547 36.4455 76.3319 37.0206 75.935 37.4457L72.699 40.8927C72.3021 41.3185 71.7633 41.5599 71.2 41.5644ZM71.6259 32.8379L68.3899 36.2849L71.2166 39.3018L74.4581 35.8548L71.6259 32.8379Z" fill="black"/>
<path d="M77.7106 36.6325C76.9032 36.6344 76.1033 36.4662 75.3571 36.1376C74.611 35.8089 73.9332 35.3263 73.3628 34.7175L72.6658 33.9751C71.5146 32.7457 70.8682 31.0801 70.8682 29.3437C70.8682 27.6073 71.5146 25.9418 72.6658 24.7124L94.0729 1.91501C95.2271 0.68876 96.7906 0.00012207 98.4208 0.00012207C100.051 0.00012207 101.614 0.68876 102.769 1.91501L103.466 2.65745C104.618 3.88609 105.265 5.55191 105.265 7.2888C105.265 9.02569 104.618 10.6915 103.466 11.9202L82.0639 34.7175C81.4929 35.327 80.8142 35.81 80.067 36.1387C79.3198 36.4674 78.519 36.6352 77.7106 36.6325ZM74.8619 33.0971C75.6179 33.9009 76.6424 34.3524 77.7106 34.3524C78.7788 34.3524 79.8033 33.9009 80.5593 33.0971L101.961 10.2998C102.712 9.49217 103.133 8.40166 103.133 7.26523C103.133 6.1288 102.712 5.03829 101.961 4.23069L101.27 3.5354C100.501 2.75787 99.4809 2.32438 98.4208 2.32438C97.3606 2.32438 96.3409 2.75787 95.572 3.5354L74.1704 26.3092C73.4198 27.1168 72.9988 28.2073 72.9988 29.3437C72.9988 30.4801 73.4198 31.5707 74.1704 32.3783L74.8619 33.0971Z" fill="black"/>
</svg>
