<svg width="71" height="82" viewBox="0 0 71 82" fill="none" xmlns="http://www.w3.org/2000/svg">
<g clip-path="url(#clip0_9_118)">
<path d="M51.7846 81.7486H17.6478C17.0419 81.7515 16.4414 81.6348 15.8808 81.4049C15.3201 81.1751 14.8104 80.8368 14.381 80.4094C13.9515 79.982 13.6107 79.474 13.3781 78.9145C13.1456 78.3549 13.0259 77.755 13.0259 77.1491V17.7107C13.0265 17.1067 13.146 16.5087 13.3777 15.9509C13.6094 15.3931 13.9487 14.8864 14.3762 14.4597C14.8037 14.033 15.3111 13.6947 15.8694 13.4641C16.4276 13.2335 17.0258 13.1151 17.6299 13.1157H51.7666C52.9849 13.1169 54.153 13.6014 55.0145 14.4629C55.8759 15.3243 56.3604 16.4924 56.3616 17.7107C56.3616 17.9394 56.2708 18.1588 56.109 18.3205C55.9473 18.4823 55.7279 18.5731 55.4992 18.5731C55.2705 18.5731 55.0511 18.4823 54.8894 18.3205C54.7277 18.1588 54.6368 17.9394 54.6368 17.7107C54.6404 16.9498 54.3422 16.2186 53.8076 15.6772C53.2729 15.1358 52.5454 14.8285 51.7846 14.8226H17.6478C16.8862 14.8226 16.1557 15.1248 15.6167 15.6629C15.0777 16.2011 14.7743 16.9311 14.7731 17.6927V77.1491C14.7743 77.9107 15.0777 78.6408 15.6167 79.1789C16.1557 79.717 16.8862 80.0193 17.6478 80.0193H51.7846C52.5455 80.0181 53.2748 79.7153 53.8128 79.1773C54.3508 78.6393 54.6536 77.91 54.6548 77.1491V41.036C54.6548 40.8073 54.7456 40.5879 54.9074 40.4262C55.0691 40.2645 55.2885 40.1736 55.5172 40.1736C55.7459 40.1736 55.9653 40.2645 56.127 40.4262C56.2887 40.5879 56.3796 40.8073 56.3796 41.036V77.1491C56.3796 78.3682 55.8956 79.5374 55.034 80.3998C54.1724 81.2623 53.0037 81.7474 51.7846 81.7486Z" fill="black"/>
<path d="M29.4834 24.1517H13.9602C13.484 24.1517 13.0977 23.9541 13.0977 23.478C13.0977 23.0018 13.484 22.8042 13.9602 22.8042H29.4834C29.9595 22.8042 30.3458 23.0018 30.3458 23.478C30.3458 23.9541 29.9595 24.1517 29.4834 24.1517Z" fill="black"/>
<path d="M55.3555 72.6619H13.9601C13.7219 72.6619 13.4934 72.5673 13.3249 72.3988C13.1564 72.2303 13.0618 72.0018 13.0618 71.7636C13.0618 71.5253 13.1564 71.2968 13.3249 71.1283C13.4934 70.9599 13.7219 70.8652 13.9601 70.8652H55.3555C55.5937 70.8652 55.8222 70.9599 55.9907 71.1283C56.1592 71.2968 56.2538 71.5253 56.2538 71.7636C56.2538 72.0018 56.1592 72.2303 55.9907 72.3988C55.8222 72.5673 55.5937 72.6619 55.3555 72.6619Z" fill="black"/>
<path d="M55.2477 56.4919C54.9512 56.4919 54.6637 56.5907 54.3808 56.5682C54.3273 56.5696 54.2742 56.5598 54.2248 56.5396C54.1753 56.5193 54.1306 56.489 54.0934 56.4506C54.0563 56.4122 54.0275 56.3665 54.0089 56.3164C53.9904 56.2663 53.9824 56.2128 53.9855 56.1595C53.999 56.0526 54.0533 55.9551 54.137 55.8873C54.2207 55.8195 54.3273 55.7867 54.4347 55.7957C54.6997 55.7957 54.9692 55.8496 55.2387 55.8541C55.5082 55.8585 55.6878 55.9394 55.6878 56.1775C55.6878 56.4155 55.4722 56.4919 55.2477 56.4919ZM57.781 56.5278C57.686 56.5086 57.5998 56.4593 57.5352 56.3871C57.4706 56.3149 57.4311 56.2238 57.4225 56.1274C57.4139 56.0309 57.4368 55.9342 57.4876 55.8518C57.5384 55.7693 57.6146 55.7055 57.7046 55.6699C57.9741 55.6205 58.2436 55.5666 58.5086 55.4992C58.6052 55.5039 58.6976 55.5396 58.7722 55.601C58.8469 55.6624 58.8997 55.7462 58.9229 55.84C58.9461 55.9338 58.9385 56.0326 58.901 56.1218C58.8636 56.2109 58.7985 56.2855 58.7152 56.3347C58.4323 56.4065 58.1448 56.4694 57.8573 56.5188L57.781 56.5278ZM51.9014 56.2358H51.7846C51.5001 56.155 51.2216 56.0652 50.9491 55.9663C50.8798 55.9617 50.8124 55.941 50.7524 55.906C50.6924 55.8709 50.6413 55.8224 50.6033 55.7642C50.5652 55.706 50.5411 55.6398 50.533 55.5708C50.5248 55.5018 50.5328 55.4318 50.5563 55.3664C50.5798 55.3009 50.6182 55.2419 50.6684 55.1938C50.7186 55.1457 50.7793 55.1099 50.8456 55.0893C50.912 55.0686 50.9823 55.0637 51.0509 55.0748C51.1195 55.0859 51.1846 55.1128 51.2411 55.1534C51.4971 55.2432 51.7576 55.3285 52.0226 55.4049C52.1073 55.447 52.1765 55.5146 52.2204 55.5983C52.2643 55.682 52.2807 55.7774 52.2673 55.871C52.2539 55.9645 52.2113 56.0514 52.1456 56.1194C52.0799 56.1873 51.9944 56.2328 51.9014 56.2493V56.2358ZM61.0015 55.4947C60.9202 55.4951 60.8404 55.472 60.7719 55.4282C60.7034 55.3844 60.649 55.3217 60.6152 55.2477C60.5704 55.144 60.5664 55.0272 60.6039 54.9207C60.6413 54.8141 60.7175 54.7256 60.8173 54.6727C61.0644 54.556 61.3069 54.4347 61.545 54.2999C61.6402 54.2771 61.7402 54.286 61.8299 54.3252C61.9196 54.3645 61.994 54.4319 62.0418 54.5174C62.0896 54.6028 62.1082 54.7015 62.0947 54.7985C62.0813 54.8954 62.0365 54.9854 61.9672 55.0545C61.7112 55.1938 61.4507 55.3285 61.1857 55.4543C61.1237 55.4826 61.0561 55.4964 60.988 55.4947H61.0015ZM48.7976 54.8883C48.7197 54.8893 48.6432 54.8674 48.5775 54.8255C48.326 54.6772 48.0789 54.5155 47.8409 54.3493C47.7745 54.3272 47.7143 54.2899 47.6649 54.2404C47.6155 54.1908 47.5784 54.1305 47.5565 54.064C47.5346 53.9976 47.5285 53.927 47.5387 53.8578C47.5489 53.7887 47.5751 53.7228 47.6152 53.6655C47.6553 53.6083 47.7083 53.5611 47.7698 53.5279C47.8314 53.4947 47.8998 53.4764 47.9697 53.4743C48.0396 53.4722 48.109 53.4865 48.1724 53.516C48.2359 53.5455 48.2915 53.5894 48.335 53.6441C48.5536 53.7969 48.7826 53.9466 49.0222 54.0933C49.0922 54.1482 49.1443 54.2226 49.1719 54.3072C49.1996 54.3917 49.2015 54.4826 49.1774 54.5682C49.1534 54.6539 49.1044 54.7304 49.0368 54.7882C48.9692 54.846 48.8859 54.8824 48.7976 54.8928V54.8883ZM63.8447 53.6621C63.7822 53.6625 63.7203 53.6491 63.6636 53.6226C63.6069 53.5962 63.5568 53.5576 63.5168 53.5094C63.4475 53.4206 63.4141 53.3089 63.4233 53.1966C63.4324 53.0842 63.4834 52.9795 63.5662 52.903C63.7774 52.7234 63.9795 52.5437 64.1771 52.3505C64.263 52.3061 64.361 52.2906 64.4564 52.3064C64.5519 52.3221 64.6397 52.3682 64.7068 52.4379C64.7739 52.5075 64.8168 52.5969 64.829 52.6929C64.8412 52.7888 64.8221 52.8862 64.7745 52.9704C64.5634 53.177 64.3253 53.3702 64.1277 53.5588C64.0458 53.6301 63.9397 53.6671 63.8313 53.6621H63.8447ZM46.152 52.7638C46.0357 52.7621 45.9246 52.7154 45.8421 52.6335C45.6355 52.4224 45.4423 52.1844 45.2492 51.9822C45.2091 51.8932 45.1992 51.7935 45.2209 51.6983C45.2425 51.6032 45.2946 51.5176 45.3692 51.4547C45.4438 51.3917 45.5369 51.3548 45.6344 51.3495C45.7319 51.3442 45.8284 51.3708 45.9095 51.4253C46.0831 51.6349 46.2673 51.837 46.4619 52.0316C46.539 52.1147 46.5818 52.2238 46.5818 52.3371C46.5818 52.4503 46.539 52.5594 46.4619 52.6425C46.4214 52.6879 46.3715 52.7238 46.3156 52.7479C46.2598 52.7719 46.1993 52.7835 46.1385 52.7817L46.152 52.7638ZM66.122 51.1423C66.034 51.1416 65.9481 51.115 65.875 51.0659C65.7843 50.9977 65.7228 50.8978 65.7028 50.7862C65.6828 50.6745 65.7058 50.5594 65.7672 50.464C65.9244 50.2395 66.0726 50.0149 66.2163 49.7768C66.2346 49.7096 66.2683 49.6475 66.3146 49.5955C66.361 49.5435 66.4189 49.503 66.4836 49.4773C66.5483 49.4515 66.6182 49.4411 66.6876 49.447C66.757 49.4529 66.8241 49.4748 66.8836 49.5111C66.9431 49.5473 66.9934 49.597 67.0304 49.656C67.0674 49.715 67.0901 49.7819 67.0969 49.8512C67.1036 49.9206 67.0941 49.9905 67.0691 50.0556C67.0441 50.1206 67.0044 50.1789 66.953 50.226C66.8003 50.4775 66.643 50.7201 66.4769 50.9626C66.4361 51.0229 66.3813 51.0725 66.3171 51.1069C66.2529 51.1413 66.1814 51.1596 66.1085 51.1602L66.122 51.1423ZM44.1352 50.0508C44.0588 50.0493 43.9841 50.0282 43.918 49.9897C43.852 49.9512 43.7969 49.8965 43.7579 49.8307C43.6142 49.5732 43.4795 49.3127 43.3537 49.0492C43.308 48.9968 43.275 48.9346 43.2575 48.8674C43.2399 48.8001 43.2381 48.7297 43.2524 48.6617C43.2666 48.5937 43.2964 48.5299 43.3395 48.4754C43.3826 48.4208 43.4377 48.377 43.5005 48.3474C43.5634 48.3178 43.6323 48.3032 43.7017 48.3047C43.7712 48.3062 43.8394 48.3238 43.9009 48.3561C43.9624 48.3884 44.0156 48.4346 44.0563 48.4909C44.0969 48.5473 44.124 48.6123 44.1352 48.6808C44.252 48.9279 44.3778 49.1704 44.508 49.4085C44.5597 49.5094 44.5713 49.6262 44.5405 49.7353C44.5097 49.8445 44.4387 49.9379 44.3419 49.9969C44.276 50.0397 44.2001 50.0645 44.1218 50.0688L44.1352 50.0508ZM67.6761 48.1329C67.6271 48.1411 67.577 48.1411 67.5279 48.1329C67.4228 48.0906 67.3376 48.0102 67.2893 47.9077C67.241 47.8053 67.2332 47.6883 67.2674 47.5804C67.3617 47.3244 67.4426 47.0638 67.5189 46.7988C67.5704 46.7157 67.6477 46.6517 67.7389 46.6164C67.8302 46.5812 67.9304 46.5767 68.0244 46.6036C68.1184 46.6306 68.2011 46.6875 68.2598 46.7657C68.3186 46.8439 68.3502 46.9391 68.3499 47.0369C68.269 47.3214 68.1792 47.5998 68.0804 47.8723C68.0464 47.9551 67.9885 48.0258 67.9141 48.0754C67.8396 48.125 67.7521 48.1513 67.6627 48.1508L67.6761 48.1329ZM42.8866 46.9021C42.7917 46.8993 42.7002 46.8664 42.6251 46.8083C42.5501 46.7502 42.4954 46.6699 42.4688 46.5787C42.4015 46.2958 42.3386 46.0083 42.2847 45.7208C42.2536 45.6584 42.2376 45.5896 42.2377 45.5199C42.2379 45.4502 42.2543 45.3815 42.2856 45.3192C42.3169 45.2569 42.3623 45.2028 42.4181 45.1611C42.474 45.1194 42.5388 45.0912 42.6074 45.0789C42.676 45.0665 42.7465 45.0703 42.8134 45.09C42.8803 45.1096 42.9417 45.1445 42.9928 45.192C43.0438 45.2394 43.0831 45.2981 43.1076 45.3634C43.132 45.4287 43.1409 45.4988 43.1336 45.5681C43.183 45.8376 43.2414 46.1026 43.3043 46.3676C43.327 46.4775 43.3078 46.5919 43.2505 46.6883C43.1931 46.7847 43.1018 46.8562 42.9944 46.8887C42.9556 46.9048 42.9148 46.9153 42.8731 46.9201L42.8866 46.9021ZM68.3903 44.827H68.3544C68.2448 44.8137 68.144 44.7606 68.0711 44.6778C67.9982 44.5949 67.9583 44.4882 67.9591 44.3778C67.9801 44.1053 67.9935 43.8313 67.9995 43.5558L68.4487 43.5064H68.8979V43.5693C68.8979 43.8613 68.8979 44.1532 68.8574 44.4407C68.846 44.5575 68.7894 44.6652 68.6995 44.7408C68.6097 44.8163 68.4939 44.8537 68.3768 44.8449L68.3903 44.827ZM42.4913 43.0168C42.2532 43.0168 42.0421 43.1022 42.0421 42.8641V42.9495C42.0421 42.6755 42.0421 42.4644 42.0825 42.1814C42.0881 42.1282 42.1042 42.0766 42.1299 42.0296C42.1555 41.9827 42.1903 41.9413 42.2321 41.9079C42.2738 41.8744 42.3218 41.8496 42.3733 41.8349C42.4247 41.8202 42.4786 41.8158 42.5317 41.822C42.6461 41.8356 42.7508 41.8926 42.8244 41.9812C42.898 42.0698 42.9347 42.1833 42.927 42.2982C42.927 42.5632 42.8955 42.5677 42.891 42.8372C42.8865 43.1067 42.7248 43.0168 42.4913 43.0168ZM68.2062 41.4133C68.1063 41.4095 68.0106 41.3726 67.9342 41.3083C67.8577 41.2441 67.8048 41.1561 67.7839 41.0585C67.7345 40.789 67.6761 40.5195 67.6088 40.2589C67.5732 40.1988 67.5522 40.1313 67.5473 40.0616C67.5424 39.9919 67.5539 39.9221 67.5807 39.8576C67.6076 39.7932 67.6491 39.7358 67.702 39.6902C67.7549 39.6446 67.8176 39.6119 67.8853 39.5948C67.9531 39.5777 68.0238 39.5766 68.092 39.5917C68.1602 39.6067 68.224 39.6374 68.2782 39.6814C68.3325 39.7253 68.3757 39.7814 68.4045 39.845C68.4334 39.9086 68.4469 39.9781 68.4442 40.0478C68.5161 40.3308 68.579 40.6138 68.6329 40.9012C68.6492 41.0133 68.6227 41.1273 68.5585 41.2206C68.4944 41.3138 68.3974 41.3795 68.287 41.4043L68.2062 41.4133ZM42.9809 40.214C42.9422 40.2206 42.9027 40.2206 42.8641 40.214C42.7573 40.1788 42.6676 40.1048 42.6127 40.0067C42.5578 39.9086 42.5417 39.7934 42.5676 39.684C42.644 39.401 42.7338 39.1225 42.8327 38.8486C42.8894 38.7697 42.9702 38.7114 43.0629 38.6823C43.1557 38.6533 43.2553 38.6551 43.3469 38.6875C43.4385 38.7199 43.5171 38.7811 43.571 38.862C43.6249 38.9429 43.6511 39.039 43.6456 39.136C43.5558 39.392 43.4705 39.6526 43.3941 39.9176C43.3633 40.003 43.3073 40.077 43.2335 40.1299C43.1597 40.1828 43.0716 40.2122 42.9809 40.214ZM67.1641 38.1793C67.0827 38.1797 67.003 38.1566 66.9345 38.1128C66.866 38.0689 66.8115 38.0063 66.7778 37.9322C66.6565 37.6852 66.5308 37.4427 66.4005 37.2091C66.3488 37.1081 66.3372 36.9914 66.368 36.8822C66.3989 36.7731 66.4698 36.6797 66.5667 36.6207C66.6157 36.5923 66.6699 36.574 66.7261 36.567C66.7824 36.56 66.8394 36.5644 66.8939 36.5799C66.9484 36.5954 66.9992 36.6218 67.0433 36.6573C67.0874 36.6929 67.1239 36.7369 67.1506 36.7869C67.2943 37.0384 67.4291 37.2989 67.5549 37.5639C67.5993 37.6682 67.6027 37.7853 67.5644 37.8919C67.526 37.9986 67.4488 38.0868 67.3482 38.1389C67.2904 38.1652 67.2276 38.179 67.1641 38.1793ZM44.3239 37.1103C44.2463 37.1087 44.1705 37.087 44.1038 37.0474C44.0088 36.9855 43.9408 36.89 43.9133 36.78C43.8858 36.6701 43.9009 36.5538 43.9556 36.4545C44.1038 36.203 44.2655 35.9604 44.4317 35.7178C44.4632 35.6708 44.5039 35.6306 44.5513 35.5995C44.5986 35.5685 44.6518 35.5473 44.7075 35.5373C44.7633 35.5272 44.8205 35.5285 44.8757 35.541C44.9309 35.5535 44.9831 35.577 45.0291 35.61C45.1193 35.6774 45.1808 35.7762 45.2016 35.8869C45.2224 35.9975 45.2009 36.1119 45.1414 36.2074C44.9842 36.432 44.8359 36.6566 44.6922 36.8992C44.653 36.962 44.5988 37.0141 44.5346 37.051C44.4703 37.0878 44.3979 37.1082 44.3239 37.1103ZM65.3225 35.3585C65.2602 35.3572 65.1989 35.3429 65.1425 35.3166C65.0861 35.2903 65.0357 35.2526 64.9946 35.2058C64.8194 34.9947 64.6353 34.7971 64.4421 34.5994C64.3819 34.5647 64.3306 34.5165 64.2921 34.4587C64.2537 34.4008 64.2292 34.3347 64.2206 34.2658C64.212 34.1968 64.2196 34.1268 64.2426 34.0613C64.2657 33.9957 64.3036 33.9364 64.3535 33.888C64.4033 33.8396 64.4637 33.8034 64.5299 33.7823C64.5961 33.7612 64.6663 33.7557 64.735 33.7663C64.8037 33.777 64.8689 33.8034 64.9257 33.8435C64.9824 33.8836 65.0291 33.9363 65.062 33.9975C65.2656 34.2071 65.4632 34.4227 65.6549 34.6443C65.7255 34.7335 65.7597 34.8461 65.7505 34.9595C65.7414 35.0729 65.6895 35.1786 65.6055 35.2552C65.5258 35.3212 65.4259 35.3577 65.3225 35.3585ZM46.426 34.4602C46.3689 34.4602 46.3124 34.4487 46.2599 34.4263C46.2074 34.4039 46.16 34.3711 46.1206 34.3299C46.0435 34.2469 46.0007 34.1378 46.0007 34.0245C46.0007 33.9112 46.0435 33.8021 46.1206 33.7191C46.3272 33.5124 46.5697 33.3193 46.7674 33.1262C46.8564 33.0861 46.9561 33.0762 47.0512 33.0978C47.1464 33.1195 47.232 33.1716 47.2949 33.2462C47.3579 33.3208 47.3948 33.4139 47.4001 33.5114C47.4054 33.6089 47.3788 33.7054 47.3243 33.7864C47.1177 33.9616 46.9156 34.1458 46.718 34.3344C46.6802 34.3738 46.6348 34.4052 46.5847 34.4268C46.5346 34.4484 46.4806 34.4598 46.426 34.4602ZM62.8116 33.1127C62.7251 33.1111 62.6409 33.0846 62.5691 33.0363C62.3445 32.8791 62.1199 32.7309 61.8774 32.5872C61.7824 32.5253 61.7144 32.4298 61.6869 32.3198C61.6594 32.2098 61.6745 32.0935 61.7291 31.9942C61.791 31.8993 61.8865 31.8312 61.9965 31.8038C62.1065 31.7763 62.2228 31.7914 62.3221 31.846C62.5736 31.9942 62.8161 32.1559 63.0587 32.3221C63.1248 32.3795 63.1728 32.4549 63.1966 32.5391C63.2205 32.6233 63.2192 32.7127 63.1929 32.7962C63.1667 32.8797 63.1166 32.9537 63.0489 33.0091C62.9811 33.0646 62.8987 33.099 62.8116 33.1082V33.1127ZM49.1435 32.4614C49.054 32.4505 48.9699 32.4131 48.902 32.3538C48.8341 32.2945 48.7856 32.2161 48.7629 32.1289C48.7401 32.0418 48.7441 31.9497 48.7743 31.8648C48.8045 31.7799 48.8596 31.7061 48.9324 31.6529C49.1839 31.5091 49.4444 31.3789 49.7094 31.2531C49.8052 31.2375 49.9034 31.2534 49.9894 31.2983C50.0754 31.3431 50.1446 31.4147 50.1866 31.5022C50.2285 31.5896 50.2411 31.6883 50.2222 31.7835C50.2034 31.8787 50.1543 31.9652 50.0822 32.0302C49.8352 32.147 49.5881 32.2727 49.3501 32.4075C49.285 32.4353 49.2139 32.4461 49.1435 32.4389V32.4614ZM59.8022 31.563C59.7547 31.572 59.706 31.572 59.6585 31.563C59.4025 31.4732 59.1419 31.3879 58.8769 31.3115C58.8067 31.3131 58.7371 31.2981 58.6737 31.2679C58.6102 31.2377 58.5548 31.193 58.5118 31.1374C58.4688 31.0819 58.4394 31.017 58.426 30.948C58.4126 30.8791 58.4156 30.8079 58.4347 30.7403C58.4538 30.6727 58.4885 30.6105 58.536 30.5587C58.5835 30.507 58.6425 30.4671 58.7082 30.4423C58.774 30.4174 58.8446 30.4084 58.9145 30.4158C58.9843 30.4232 59.0515 30.447 59.1105 30.485C59.3935 30.5614 59.672 30.6512 59.946 30.7501C60.0273 30.7953 60.0926 30.8647 60.1328 30.9487C60.1729 31.0326 60.1861 31.127 60.1703 31.2187C60.1545 31.3105 60.1106 31.395 60.0447 31.4607C59.9787 31.5264 59.894 31.57 59.8022 31.5855V31.563ZM52.2831 31.2082C52.1898 31.1902 52.1045 31.1431 52.0396 31.0736C51.9748 31.0041 51.9336 30.9158 51.9221 30.8214C51.9106 30.727 51.9294 30.6314 51.9757 30.5484C52.022 30.4653 52.0935 30.3991 52.1798 30.3593C52.4628 30.2874 52.7458 30.2245 53.0378 30.1706C53.1497 30.1557 53.2631 30.1834 53.3555 30.2483C53.4479 30.3133 53.5125 30.4106 53.5363 30.521C53.5515 30.6323 53.5243 30.7452 53.4603 30.8375C53.3963 30.9298 53.3 30.9947 53.1905 31.0196C52.921 31.0735 52.656 31.1274 52.3909 31.1947C52.355 31.1976 52.3188 31.1961 52.2831 31.1902V31.2082ZM56.4918 30.8579H56.4604C56.2044 30.8579 55.9439 30.8264 55.6789 30.8219C55.5597 30.8219 55.4455 30.7746 55.3612 30.6904C55.277 30.6061 55.2297 30.4919 55.2297 30.3728C55.2254 30.3157 55.2328 30.2583 55.2516 30.2043C55.2704 30.1502 55.3001 30.1006 55.3388 30.0585C55.3776 30.0164 55.4245 29.9826 55.4769 29.9594C55.5292 29.9362 55.5857 29.924 55.6429 29.9236H55.6968C55.9573 29.9236 56.2313 29.9236 56.5053 29.9595C56.6157 29.9717 56.7176 30.0244 56.7915 30.1073C56.8653 30.1903 56.9058 30.2976 56.9051 30.4087C56.901 30.5187 56.8567 30.6234 56.7805 30.7029C56.7043 30.7824 56.6016 30.8312 56.4918 30.8399V30.8579Z" fill="black"/>
<path d="M52.6066 36.7958C62.7675 36.7958 71.0045 28.5588 71.0045 18.3979C71.0045 8.23703 62.7675 0 52.6066 0C42.4457 0 34.2086 8.23703 34.2086 18.3979C34.2086 28.5588 42.4457 36.7958 52.6066 36.7958Z" fill="#FFCC5B"/>
<path d="M13.6547 64.1053C21.196 64.1053 27.3094 57.9919 27.3094 50.4506C27.3094 42.9093 21.196 36.7959 13.6547 36.7959C6.11342 36.7959 0 42.9093 0 50.4506C0 57.9919 6.11342 64.1053 13.6547 64.1053Z" fill="#FEAC95"/>
</g>
<defs>
<clipPath id="clip0_9_118">
<rect width="71" height="81.7441" fill="white"/>
</clipPath>
</defs>
</svg>
