<svg width="97" height="89" viewBox="0 0 97 89" fill="none" xmlns="http://www.w3.org/2000/svg">
<g clip-path="url(#clip0_9_71)">
<path d="M5.52814 5.71551C5.61953 5.59922 5.73297 5.50211 5.86196 5.42973C5.99095 5.35735 6.13295 5.31114 6.27982 5.29373C6.4267 5.27632 6.57557 5.28806 6.7179 5.32828C6.86023 5.3685 6.99323 5.43641 7.10928 5.52811L12.0577 9.44583C12.8264 8.03021 13.0368 6.37797 12.6474 4.81487C12.2581 3.25178 11.2972 1.89129 9.95428 1.00167C8.61136 0.112041 6.98387 -0.242153 5.3927 0.00892363C3.80153 0.260001 2.36218 1.09813 1.35844 2.35804C0.354714 3.61795 -0.140542 5.20821 -0.0296703 6.81524C0.0812015 8.42228 0.790155 9.92945 1.9574 11.0396C3.12464 12.1497 4.66546 12.7822 6.27603 12.8124C7.8866 12.8426 9.45004 12.2683 10.6581 11.2026L5.71553 7.29079C5.48238 7.10633 5.33177 6.83705 5.29666 6.54183C5.26154 6.24662 5.34477 5.94951 5.52814 5.71551Z" fill="#2D41E2"/>
<path d="M37.9766 32.5248C37.7246 32.5218 37.4802 32.4376 37.2798 32.2847L32.3314 28.3669C31.8002 29.3341 31.5263 30.4216 31.5361 31.525C31.5459 32.6285 31.8389 33.7109 32.3872 34.6686C32.9355 35.6262 33.7205 36.4269 34.6672 36.994C35.6138 37.5611 36.6902 37.8755 37.7933 37.907C38.8963 37.9386 39.9889 37.6863 40.9664 37.1743C41.9439 36.6623 42.7735 35.9077 43.3757 34.983C43.9778 34.0583 44.3323 32.9944 44.4051 31.8933C44.478 30.7922 44.2668 29.6909 43.7917 28.6949L38.6501 32.3257C38.4528 32.4626 38.2167 32.5324 37.9766 32.5248Z" fill="#FEAC95"/>
<path d="M42.5034 26.8619C41.3494 25.7046 39.7962 25.0331 38.1626 24.9852C36.529 24.9373 34.9391 25.5166 33.7193 26.6042L38.0059 30.0008L42.5034 26.8619Z" fill="#FEAC95"/>
<path d="M64.7447 11.9639L70.4954 14.5523C70.6243 14.041 70.6911 13.516 70.6945 12.9887C70.7167 12.0129 70.5169 11.0448 70.1102 10.1576C69.7034 9.27029 69.1003 8.48706 68.3465 7.86703C67.5926 7.24701 66.7078 6.80639 65.7587 6.57847C64.8096 6.35055 63.8211 6.34129 62.868 6.55138C61.9148 6.76148 61.0218 7.18543 60.2565 7.79123C59.4912 8.39702 58.8735 9.16881 58.4502 10.0483C58.0269 10.9278 57.8089 11.892 57.8129 12.868C57.8168 13.8441 58.0425 14.8065 58.4729 15.6825L63.6379 12.0693C63.7972 11.9568 63.9832 11.8879 64.1773 11.8694C64.3715 11.8509 64.5671 11.8835 64.7447 11.9639Z" fill="#FFCC5B"/>
<path d="M59.7319 17.5272C60.3985 18.1928 61.2036 18.7032 62.0899 19.022C62.9762 19.3409 63.9219 19.4604 64.8597 19.3721C65.7974 19.2837 66.7042 18.9897 67.5154 18.5109C68.3265 18.0321 69.0221 17.3803 69.5526 16.602L64.3817 14.2595L59.7319 17.5272Z" fill="#FFCC5B"/>
<path d="M90.5876 18.4116C89.5479 18.4155 88.5248 18.6724 87.6065 19.1601C86.6883 19.6478 85.9026 20.3516 85.3171 21.2108L91.0737 23.7992C91.3455 23.9219 91.5574 24.1475 91.6628 24.4265C91.7682 24.7054 91.7585 25.0149 91.6358 25.2866C91.5131 25.5584 91.2875 25.7704 91.0086 25.8758C90.7296 25.9812 90.4202 25.9715 90.1484 25.8488L84.3977 23.2604C84.2689 23.7718 84.202 24.2967 84.1986 24.824C84.1986 26.0923 84.5747 27.332 85.2793 28.3866C85.9839 29.4411 86.9854 30.263 88.1571 30.7483C89.3288 31.2336 90.6182 31.3606 91.862 31.1132C93.1059 30.8658 94.2485 30.2551 95.1453 29.3583C96.0421 28.4615 96.6528 27.3189 96.9002 26.075C97.1476 24.8311 97.0207 23.5418 96.5353 22.3701C96.05 21.1984 95.2281 20.1969 94.1736 19.4923C93.1191 18.7877 91.8793 18.4116 90.611 18.4116H90.5876Z" fill="#2D41E2"/>
<path d="M91.6124 25.2867C91.6724 25.1507 91.7049 25.0041 91.7079 24.8555C91.711 24.7068 91.6845 24.5591 91.63 24.4207C91.5755 24.2824 91.4942 24.1563 91.3907 24.0496C91.2871 23.9429 91.1635 23.8578 91.0268 23.7992L85.2703 21.2108L70.4954 14.5525L64.7448 11.9641C64.5671 11.8837 64.3715 11.8511 64.1773 11.8695C63.9832 11.888 63.7972 11.957 63.638 12.0695L58.4729 15.6827L42.5034 26.862L38.0176 30.0008L33.731 26.6043L12.0635 9.44599L7.10928 5.52828C6.99556 5.42342 6.86143 5.34314 6.71528 5.29248C6.56913 5.24182 6.4141 5.22186 6.25988 5.23385C6.10566 5.24584 5.95557 5.28953 5.81901 5.36217C5.68244 5.43481 5.56234 5.53485 5.4662 5.65604C5.37006 5.77722 5.29996 5.91693 5.26029 6.06644C5.22061 6.21595 5.21221 6.37204 5.23561 6.52494C5.25902 6.67784 5.31372 6.82427 5.39629 6.95507C5.47887 7.08587 5.58755 7.19822 5.71553 7.2851L10.6581 11.2028L32.3255 28.3611L37.2739 32.2788C37.4743 32.4318 37.7187 32.516 37.9708 32.5189C38.2121 32.5296 38.4505 32.4618 38.6501 32.3257L43.7917 28.6949L59.732 17.5274L64.4168 14.2773L69.5877 16.6197L84.386 23.278L90.1367 25.8664C90.4094 25.9843 90.7176 25.9896 90.9941 25.8809C91.2706 25.7723 91.4929 25.5587 91.6124 25.2867Z" fill="black"/>
<path d="M22.3234 48.0783H14.9857V38.287C14.9857 37.6662 13.8496 37.1626 13.2289 37.1626C12.6081 37.1626 11.4721 37.6662 11.4721 38.287V48.0783H5.94978C5.65359 48.0783 5.36937 48.1952 5.15884 48.4035C4.94831 48.6118 4.82849 48.8948 4.82541 49.191V65.588C4.82541 65.8862 4.94387 66.1722 5.15473 66.383C5.36559 66.5939 5.65157 66.7123 5.94978 66.7123H11.4721V75.4028C11.4721 76.0235 12.6081 76.5271 13.2289 76.5271C13.8496 76.5271 14.9857 76.0235 14.9857 75.4028V66.7006H22.3234C22.6155 66.6946 22.8937 66.575 23.0992 66.3673C23.3047 66.1597 23.4213 65.8801 23.4243 65.588V49.191C23.4213 48.8988 23.3047 48.6193 23.0992 48.4116C22.8937 48.2039 22.6155 48.0844 22.3234 48.0783ZM21.199 64.4753H7.07414V50.3271H21.199V64.4753Z" fill="black"/>
<path d="M48.6054 59.732H41.9236V50.6551C41.9236 50.3445 41.8002 50.0466 41.5806 49.8269C41.3609 49.6073 41.063 49.4839 40.7524 49.4839C40.4418 49.4839 40.1439 49.6073 39.9242 49.8269C39.7046 50.0466 39.5812 50.3445 39.5812 50.6551V59.732H32.2553C32.1036 59.7319 31.9534 59.7624 31.8139 59.8219C31.6743 59.8813 31.5482 59.9683 31.4432 60.0777C31.3381 60.1871 31.2563 60.3167 31.2026 60.4585C31.149 60.6004 31.1246 60.7517 31.1309 60.9032V77.3002C31.1309 77.5984 31.2493 77.8844 31.4602 78.0953C31.6711 78.3061 31.9571 78.4246 32.2553 78.4246H39.5812V87.7943C39.5812 88.1049 39.7046 88.4028 39.9242 88.6225C40.1439 88.8421 40.4418 88.9655 40.7524 88.9655C41.063 88.9655 41.3609 88.8421 41.5806 88.6225C41.8002 88.4028 41.9236 88.1049 41.9236 87.7943V78.4246H48.6054C48.761 78.4312 48.9162 78.4055 49.0613 78.349C49.2064 78.2924 49.3382 78.2064 49.4483 78.0963C49.5584 77.9862 49.6445 77.8544 49.701 77.7093C49.7575 77.5642 49.7833 77.409 49.7766 77.2534V60.9032C49.7833 60.7477 49.7575 60.5924 49.701 60.4473C49.6445 60.3022 49.5584 60.1704 49.4483 60.0603C49.3382 59.9502 49.2064 59.8642 49.0613 59.8077C48.9162 59.7511 48.761 59.7254 48.6054 59.732ZM47.481 76.129H33.3796V62.0042H47.5045L47.481 76.129Z" fill="black"/>
<path d="M74.9577 49.4955H67.1047V40.5357C67.1047 40.2251 66.9814 39.9272 66.7617 39.7075C66.5421 39.4879 66.2442 39.3645 65.9335 39.3645C65.6229 39.3645 65.325 39.4879 65.1054 39.7075C64.8857 39.9272 64.7623 40.2251 64.7623 40.5357V49.4955H58.5607C58.4129 49.4947 58.2663 49.5233 58.1295 49.5795C57.9928 49.6357 57.8685 49.7185 57.764 49.8231C57.6594 49.9277 57.5766 50.0519 57.5204 50.1887C57.4641 50.3254 57.4356 50.472 57.4364 50.6199V67.0169C57.4364 67.3151 57.5548 67.6011 57.7657 67.8119C57.9766 68.0228 58.2625 68.1412 58.5607 68.1412H64.7623V76.5388C64.7623 76.8495 64.8857 77.1474 65.1054 77.367C65.325 77.5867 65.6229 77.7101 65.9335 77.7101C66.2442 77.7101 66.5421 77.5867 66.7617 77.367C66.9814 77.1474 67.1047 76.8495 67.1047 76.5388V68.1178H74.9577C75.2559 68.1178 75.5419 67.9994 75.7528 67.7885C75.9637 67.5776 76.0821 67.2917 76.0821 66.9935V50.5964C76.0775 50.3018 75.9568 50.021 75.7463 49.8148C75.5357 49.6087 75.2524 49.4939 74.9577 49.4955ZM73.8334 65.8925H59.6851V51.7442H73.7865L73.8334 65.8925Z" fill="black"/>
</g>
<defs>
<clipPath id="clip0_9_71">
<rect width="97" height="88.8835" fill="white"/>
</clipPath>
</defs>
</svg>
