<svg width="97" height="86" viewBox="0 0 97 86" fill="none" xmlns="http://www.w3.org/2000/svg">
<path d="M48.9424 74.6719C64.1382 74.6719 76.4569 62.3532 76.4569 47.1574C76.4569 31.9615 64.1382 19.6428 48.9424 19.6428C33.7465 19.6428 21.4278 31.9615 21.4278 47.1574C21.4278 62.3532 33.7465 74.6719 48.9424 74.6719Z" fill="#EF5E43" fill-opacity="0.77"/>
<path d="M48.9424 57.3339C43.2717 57.3339 37.7284 55.6523 33.0135 52.5017C28.2986 49.3512 24.6239 44.8732 22.4542 39.6341C20.2844 34.395 19.717 28.6301 20.8237 23.0685C21.9304 17.5069 24.6616 12.3984 28.6717 8.38903C32.6819 4.3797 37.791 1.64962 43.3528 0.544062C48.9146 -0.561497 54.6794 0.00712348 59.9181 2.17801C65.1567 4.3489 69.6339 8.02454 72.7835 12.7401C75.9331 17.4556 77.6136 22.9993 77.6124 28.6699C77.6044 36.2707 74.5811 43.5578 69.206 48.9318C63.8308 54.3058 56.5431 57.3276 48.9424 57.3339ZM48.9424 2.31086C43.729 2.31086 38.6328 3.85679 34.298 6.75317C29.9633 9.64954 26.5848 13.7663 24.5897 18.5828C22.5947 23.3992 22.0727 28.6992 23.0898 33.8123C24.1068 38.9255 26.6173 43.6222 30.3037 47.3086C33.9901 50.995 38.6868 53.5055 43.8 54.5225C48.9131 55.5396 54.2131 55.0176 59.0295 53.0226C63.846 51.0275 67.9628 47.649 70.8591 43.3143C73.7555 38.9795 75.3014 33.8833 75.3014 28.6699C75.2951 21.681 72.5159 14.9802 67.574 10.0383C62.6321 5.09639 55.9313 2.31723 48.9424 2.31086Z" fill="black"/>
<path d="M29.6124 85.5888C23.9415 85.59 18.3976 83.9094 13.6819 80.7596C8.96623 77.6097 5.29059 73.1321 3.11988 67.8931C0.949168 62.6541 0.380899 56.889 1.48695 51.327C2.59299 45.765 5.32367 40.656 9.3336 36.646C13.3435 32.6361 18.4526 29.9054 24.0146 28.7994C29.5766 27.6933 35.3417 28.2616 40.5807 30.4323C45.8197 32.603 50.2973 36.2787 53.4471 40.9944C56.597 45.71 58.2776 51.2539 58.2764 56.9248C58.2668 64.5241 55.2438 71.8093 49.8703 77.1828C44.4969 82.5562 37.2116 85.5793 29.6124 85.5888ZM29.6124 30.5657C24.3988 30.5646 19.3019 32.1095 14.9664 35.0051C10.6309 37.9008 7.25146 42.0171 5.25548 46.8335C3.2595 51.6499 2.73664 56.95 3.75303 62.0635C4.76943 67.1771 7.27941 71.8744 10.9656 75.5614C14.6517 79.2484 19.3484 81.7594 24.4617 82.777C29.5751 83.7945 34.8753 83.2729 39.6922 81.278C44.509 79.2831 48.6261 75.9046 51.5227 71.5698C54.4194 67.2349 55.9654 62.1384 55.9654 56.9248C55.9575 49.9374 53.1786 43.2384 48.2384 38.2971C43.2981 33.3557 36.5998 30.5753 29.6124 30.5657Z" fill="black"/>
<path d="M68.2784 85.5888C62.6075 85.59 57.0636 83.9094 52.3479 80.7596C47.6322 77.6097 43.9566 73.1321 41.7859 67.8931C39.6152 62.6541 39.0469 56.889 40.1529 51.327C41.259 45.765 43.9897 40.656 47.9996 36.646C52.0095 32.6361 57.1186 29.9054 62.6806 28.7994C68.2426 27.6933 74.0077 28.2616 79.2467 30.4323C84.4857 32.603 88.9632 36.2787 92.1131 40.9944C95.2629 45.71 96.9435 51.2539 96.9424 56.9248C96.9328 64.5241 93.9098 71.8093 88.5363 77.1828C83.1628 82.5562 75.8776 85.5793 68.2784 85.5888ZM68.2784 30.5657C63.0648 30.5646 57.9679 32.1095 53.6324 35.0051C49.2969 37.9008 45.9174 42.0171 43.9215 46.8335C41.9255 51.6499 41.4026 56.95 42.419 62.0635C43.4354 67.1771 45.9454 71.8744 49.6315 75.5614C53.3177 79.2484 58.0144 81.7594 63.1277 82.777C68.2411 83.7945 73.5413 83.2729 78.3581 81.278C83.175 79.2831 87.2921 75.9046 90.1887 71.5698C93.0853 67.2349 94.6314 62.1384 94.6314 56.9248C94.6235 49.9374 91.8446 43.2384 86.9044 38.2971C81.9641 33.3557 75.2657 30.5753 68.2784 30.5657Z" fill="black"/>
</svg>
