<svg width="144" height="47" viewBox="0 0 144 47" fill="none" xmlns="http://www.w3.org/2000/svg">
<path d="M0 21.7333L144 1V26.2667L0 47V21.7333Z" fill="url(#paint0_linear_1_809)" fill-opacity="0.76"/>
<path d="M28.6738 30.9414V12.6074H25.5098V9.54883H35.5117V12.6074H32.5059V30.9414H39.9941V22.627H43.4395V34H25.5098V30.9414H28.6738ZM45.5664 21.6602C45.5664 18.1094 46.7266 15.1387 49.0469 12.748C51.3672 10.3574 54.3906 9.16211 58.1172 9.16211C61.8789 9.16211 64.9434 10.3574 67.3105 12.748C69.6777 15.1387 70.8613 18.1328 70.8613 21.7305C70.8613 25.3984 69.6543 28.4277 67.2402 30.8184C64.8379 33.1973 61.7793 34.3867 58.0645 34.3867C55.6973 34.3867 53.5176 33.8242 51.5254 32.6992C49.5449 31.5625 48.0566 29.9863 47.0605 27.9707C46.0645 25.9434 45.5664 23.8398 45.5664 21.6602ZM49.5918 21.6777C49.5918 24.3613 50.377 26.6113 51.9473 28.4277C53.5176 30.2441 55.5801 31.1523 58.1348 31.1523C60.666 31.1523 62.7461 30.2266 64.375 28.375C66.0039 26.5117 66.8184 24.291 66.8184 21.7129C66.8184 19.1113 65.9863 16.9141 64.3223 15.1211C62.6699 13.3164 60.5898 12.4141 58.082 12.4141C55.5859 12.4141 53.5469 13.2988 51.9648 15.0684C50.3828 16.8379 49.5918 19.041 49.5918 21.6777ZM90.8828 22.2051H99.7773C99.7891 22.5215 99.7949 22.8027 99.7949 23.0488C99.7949 26.4824 98.6699 29.2305 96.4199 31.293C94.1699 33.3555 91.1992 34.3867 87.5078 34.3867C83.0898 34.3867 79.7969 33.1328 77.6289 30.625C75.4609 28.1055 74.377 25.1289 74.377 21.6953C74.377 18.0977 75.4844 15.1094 77.6992 12.7305C79.9141 10.3516 82.9199 9.16211 86.7168 9.16211C90.127 9.16211 92.9863 10.1992 95.2949 12.2734V9.54883H98.4062V17.582H95.2949C94.709 16.2344 93.666 15.0391 92.166 13.9961C90.6777 12.9414 88.9727 12.4141 87.0508 12.4141C84.3789 12.4141 82.2695 13.3164 80.7227 15.1211C79.1758 16.9258 78.4023 19.0996 78.4023 21.6426C78.4023 24.5605 79.2812 26.875 81.0391 28.5859C82.8086 30.2969 84.9355 31.1523 87.4199 31.1523C89.3652 31.1523 91.0996 30.6133 92.623 29.5352C94.1465 28.4453 95.0371 27.0215 95.2949 25.2637H90.8828V22.2051ZM103.293 21.6602C103.293 18.1094 104.453 15.1387 106.773 12.748C109.094 10.3574 112.117 9.16211 115.844 9.16211C119.605 9.16211 122.67 10.3574 125.037 12.748C127.404 15.1387 128.588 18.1328 128.588 21.7305C128.588 25.3984 127.381 28.4277 124.967 30.8184C122.564 33.1973 119.506 34.3867 115.791 34.3867C113.424 34.3867 111.244 33.8242 109.252 32.6992C107.271 31.5625 105.783 29.9863 104.787 27.9707C103.791 25.9434 103.293 23.8398 103.293 21.6602ZM107.318 21.6777C107.318 24.3613 108.104 26.6113 109.674 28.4277C111.244 30.2441 113.307 31.1523 115.861 31.1523C118.393 31.1523 120.473 30.2266 122.102 28.375C123.73 26.5117 124.545 24.291 124.545 21.7129C124.545 19.1113 123.713 16.9141 122.049 15.1211C120.396 13.3164 118.316 12.4141 115.809 12.4141C113.312 12.4141 111.273 13.2988 109.691 15.0684C108.109 16.8379 107.318 19.041 107.318 21.6777Z" fill="#4C29CC"/>
<defs>
<linearGradient id="paint0_linear_1_809" x1="2.78869e-08" y1="32" x2="144" y2="17" gradientUnits="userSpaceOnUse">
<stop stop-color="#E0503D"/>
<stop offset="1" stop-color="#E0503D" stop-opacity="0.9"/>
</linearGradient>
</defs>
</svg>
